<svg width="197" height="34" viewBox="0 0 197 34" fill="none" xmlns="http://www.w3.org/2000/svg">
<g clip-path="url(#clip0_371_206)">
<path d="M8.62 11.78L8.78 7.88H8.6L6 15.06L3.4 7.88H3.22L3.38 11.78V18H0.78V4.04H4.32L6.04 8.74H6.2L7.92 4.04H11.22V18H8.62V11.78ZM17.5922 12.18L16.3522 13.92V18H13.3522V4.04H16.3522V9.88H16.5122L18.0322 7.56L20.4922 4.04H23.8522L19.6722 9.94L24.0522 18H20.6722L17.5922 12.18ZM32.6044 11.78L32.7644 7.88H32.5844L29.9844 15.06L27.3844 7.88H27.2044L27.3644 11.78V18H24.7644V4.04H28.3044L30.0244 8.74H30.1844L31.9044 4.04H35.2044V18H32.6044V11.78ZM42.2966 18.24C40.4299 18.24 39.0432 17.6133 38.1366 16.36C37.2432 15.0933 36.7966 13.3133 36.7966 11.02C36.7966 8.72667 37.2432 6.95333 38.1366 5.7C39.0432 4.43333 40.4299 3.8 42.2966 3.8C43.0166 3.8 43.6499 3.9 44.1966 4.1C44.7566 4.28667 45.2366 4.55333 45.6366 4.9C46.0366 5.24667 46.3632 5.66667 46.6166 6.16C46.8832 6.65333 47.0899 7.20667 47.2366 7.82L44.4366 8.5C44.3566 8.16667 44.2632 7.86 44.1566 7.58C44.0499 7.3 43.9099 7.06 43.7366 6.86C43.5766 6.66 43.3699 6.50667 43.1166 6.4C42.8766 6.28 42.5832 6.22 42.2366 6.22C41.4232 6.22 40.8432 6.54 40.4966 7.18C40.1632 7.80667 39.9966 8.68 39.9966 9.8V12.24C39.9966 13.36 40.1632 14.24 40.4966 14.88C40.8432 15.5067 41.4232 15.82 42.2366 15.82C42.9299 15.82 43.4299 15.6067 43.7366 15.18C44.0566 14.7533 44.2899 14.2067 44.4366 13.54L47.2366 14.22C47.0899 14.8333 46.8832 15.3867 46.6166 15.88C46.3632 16.3733 46.0366 16.8 45.6366 17.16C45.2366 17.5067 44.7566 17.7733 44.1966 17.96C43.6499 18.1467 43.0166 18.24 42.2966 18.24ZM54.2488 18.24C52.5154 18.24 51.2021 17.76 50.3088 16.8C49.4154 15.84 48.9688 14.5333 48.9688 12.88C48.9688 12.04 49.0821 11.2867 49.3088 10.62C49.5488 9.94 49.8821 9.36667 50.3088 8.9C50.7488 8.42 51.2754 8.06 51.8888 7.82C52.5154 7.56667 53.2154 7.44 53.9888 7.44C54.7621 7.44 55.4554 7.56667 56.0688 7.82C56.6821 8.06 57.2021 8.40667 57.6288 8.86C58.0554 9.31333 58.3821 9.86667 58.6088 10.52C58.8488 11.16 58.9688 11.88 58.9688 12.68V13.56H51.9088V13.74C51.9088 14.4067 52.1154 14.9467 52.5288 15.36C52.9421 15.76 53.5488 15.96 54.3488 15.96C54.9621 15.96 55.4888 15.8467 55.9288 15.62C56.3688 15.38 56.7488 15.0667 57.0688 14.68L58.6688 16.42C58.2688 16.9133 57.7088 17.34 56.9888 17.7C56.2688 18.06 55.3554 18.24 54.2488 18.24ZM54.0088 9.56C53.3688 9.56 52.8554 9.76 52.4688 10.16C52.0954 10.5467 51.9088 11.0733 51.9088 11.74V11.9H56.0688V11.74C56.0688 11.06 55.8821 10.5267 55.5088 10.14C55.1488 9.75333 54.6488 9.56 54.0088 9.56ZM61.2609 18V7.68H64.2209V9.56H64.3409C64.4609 9.26667 64.6076 8.99333 64.7809 8.74C64.9543 8.48667 65.1609 8.26667 65.4009 8.08C65.6543 7.88 65.9409 7.72667 66.2609 7.62C66.5943 7.5 66.9676 7.44 67.3809 7.44C67.8743 7.44 68.3276 7.52667 68.7409 7.7C69.1543 7.86 69.5076 8.10667 69.8009 8.44C70.0943 8.77333 70.3209 9.18 70.4809 9.66C70.6543 10.14 70.7409 10.6933 70.7409 11.32V18H67.7809V11.72C67.7809 10.3867 67.2009 9.72 66.0409 9.72C65.8143 9.72 65.5876 9.75333 65.3609 9.82C65.1476 9.87333 64.9543 9.96667 64.7809 10.1C64.6076 10.22 64.4676 10.3733 64.3609 10.56C64.2676 10.7467 64.2209 10.9667 64.2209 11.22V18H61.2609ZM78.7531 18C77.6865 18 76.8931 17.72 76.3731 17.16C75.8531 16.6 75.5931 15.8867 75.5931 15.02V9.98H72.7931V7.68H74.6131C75.0531 7.68 75.3665 7.59333 75.5531 7.42C75.7398 7.24667 75.8331 6.92667 75.8331 6.46V4.04H78.5531V7.68H82.5731V9.98H78.5531V15.7H82.5731V18H78.7531ZM90.2253 18.24C88.492 18.24 87.1786 17.76 86.2853 16.8C85.392 15.84 84.9453 14.5333 84.9453 12.88C84.9453 12.04 85.0586 11.2867 85.2853 10.62C85.5253 9.94 85.8586 9.36667 86.2853 8.9C86.7253 8.42 87.252 8.06 87.8653 7.82C88.492 7.56667 89.192 7.44 89.9653 7.44C90.7386 7.44 91.432 7.56667 92.0453 7.82C92.6586 8.06 93.1786 8.40667 93.6053 8.86C94.032 9.31333 94.3586 9.86667 94.5853 10.52C94.8253 11.16 94.9453 11.88 94.9453 12.68V13.56H87.8853V13.74C87.8853 14.4067 88.092 14.9467 88.5053 15.36C88.9186 15.76 89.5253 15.96 90.3253 15.96C90.9386 15.96 91.4653 15.8467 91.9053 15.62C92.3453 15.38 92.7253 15.0667 93.0453 14.68L94.6453 16.42C94.2453 16.9133 93.6853 17.34 92.9653 17.7C92.2453 18.06 91.332 18.24 90.2253 18.24ZM89.9853 9.56C89.3453 9.56 88.832 9.76 88.4453 10.16C88.072 10.5467 87.8853 11.0733 87.8853 11.74V11.9H92.0453V11.74C92.0453 11.06 91.8586 10.5267 91.4853 10.14C91.1253 9.75333 90.6253 9.56 89.9853 9.56ZM97.4175 15.7H99.7975V9.98H97.4175V7.68H102.758V10.6H102.898C102.991 10.2267 103.118 9.86667 103.278 9.52C103.451 9.16 103.664 8.84667 103.918 8.58C104.184 8.3 104.504 8.08 104.878 7.92C105.251 7.76 105.691 7.68 106.198 7.68H107.178V10.4H104.978C104.244 10.4 103.691 10.62 103.318 11.06C102.944 11.4867 102.758 12.0133 102.758 12.64V15.7H106.158V18H97.4175V15.7Z" fill="white"/>
<path d="M1.12305 24.7031H2.03613L4.36523 30.499L6.68945 24.7031H7.60742L4.7168 31.8125H4.00391L1.12305 24.7031ZM0.825195 24.7031H1.63086L1.7627 29.0391V31.8125H0.825195V24.7031ZM7.09473 24.7031H7.90039V31.8125H6.96289V29.0391L7.09473 24.7031ZM12.6514 30.5918V26.5293H13.5596V31.8125H12.6953L12.6514 30.5918ZM12.8223 29.4785L13.1982 29.4688C13.1982 29.8203 13.1608 30.1458 13.0859 30.4453C13.0143 30.7415 12.8971 30.9987 12.7344 31.2168C12.5716 31.4349 12.3584 31.6058 12.0947 31.7295C11.8311 31.8499 11.5104 31.9102 11.1328 31.9102C10.8757 31.9102 10.6396 31.8727 10.4248 31.7979C10.2132 31.723 10.0309 31.6074 9.87793 31.4512C9.72493 31.2949 9.60612 31.0915 9.52148 30.8408C9.4401 30.5902 9.39941 30.2891 9.39941 29.9375V26.5293H10.3027V29.9473C10.3027 30.1849 10.3288 30.3818 10.3809 30.5381C10.4362 30.6911 10.5094 30.8132 10.6006 30.9043C10.695 30.9922 10.7992 31.054 10.9131 31.0898C11.0303 31.1257 11.1507 31.1436 11.2744 31.1436C11.6585 31.1436 11.9629 31.0703 12.1875 30.9238C12.4121 30.7741 12.5732 30.5739 12.6709 30.3232C12.7718 30.0693 12.8223 29.7878 12.8223 29.4785ZM15.918 24.3125V31.8125H15.0098V24.3125H15.918ZM19.5801 26.5293V27.2227H16.7236V26.5293H19.5801ZM17.6904 25.2451H18.5938V30.5039C18.5938 30.6829 18.6214 30.818 18.6768 30.9092C18.7321 31.0003 18.8037 31.0605 18.8916 31.0898C18.9795 31.1191 19.0739 31.1338 19.1748 31.1338C19.2497 31.1338 19.3278 31.1273 19.4092 31.1143C19.4938 31.098 19.5573 31.085 19.5996 31.0752L19.6045 31.8125C19.5329 31.8353 19.4385 31.8564 19.3213 31.876C19.2074 31.8988 19.069 31.9102 18.9062 31.9102C18.6849 31.9102 18.4814 31.8662 18.2959 31.7783C18.1104 31.6904 17.9622 31.5439 17.8516 31.3389C17.7441 31.1305 17.6904 30.8506 17.6904 30.499V25.2451ZM21.6211 26.5293V31.8125H20.7129V26.5293H21.6211ZM20.6445 25.1279C20.6445 24.9814 20.6885 24.8577 20.7764 24.7568C20.8675 24.6559 21.001 24.6055 21.1768 24.6055C21.3493 24.6055 21.4811 24.6559 21.5723 24.7568C21.6667 24.8577 21.7139 24.9814 21.7139 25.1279C21.7139 25.2679 21.6667 25.3883 21.5723 25.4893C21.4811 25.5869 21.3493 25.6357 21.1768 25.6357C21.001 25.6357 20.8675 25.5869 20.7764 25.4893C20.6885 25.3883 20.6445 25.2679 20.6445 25.1279ZM25.1855 31.168C25.4004 31.168 25.599 31.124 25.7812 31.0361C25.9635 30.9482 26.1133 30.8278 26.2305 30.6748C26.3477 30.5186 26.4144 30.3411 26.4307 30.1426H27.29C27.2738 30.4551 27.168 30.7464 26.9727 31.0166C26.7806 31.2835 26.5283 31.5 26.2158 31.666C25.9033 31.8288 25.5599 31.9102 25.1855 31.9102C24.7884 31.9102 24.4417 31.8402 24.1455 31.7002C23.8525 31.5602 23.6084 31.3682 23.4131 31.124C23.221 30.8799 23.0762 30.5999 22.9785 30.2842C22.8841 29.9652 22.8369 29.6283 22.8369 29.2734V29.0684C22.8369 28.7135 22.8841 28.3783 22.9785 28.0625C23.0762 27.7435 23.221 27.4619 23.4131 27.2178C23.6084 26.9736 23.8525 26.7816 24.1455 26.6416C24.4417 26.5016 24.7884 26.4316 25.1855 26.4316C25.599 26.4316 25.9603 26.5163 26.2695 26.6855C26.5788 26.8516 26.8213 27.0794 26.9971 27.3691C27.1761 27.6556 27.2738 27.9811 27.29 28.3457H26.4307C26.4144 28.1276 26.3525 27.9307 26.2451 27.7549C26.141 27.5791 25.9977 27.4391 25.8154 27.335C25.6364 27.2275 25.4264 27.1738 25.1855 27.1738C24.9089 27.1738 24.6761 27.2292 24.4873 27.3398C24.3018 27.4473 24.1536 27.5938 24.043 27.7793C23.9355 27.9616 23.8574 28.165 23.8086 28.3896C23.763 28.611 23.7402 28.8372 23.7402 29.0684V29.2734C23.7402 29.5046 23.763 29.7324 23.8086 29.957C23.8542 30.1816 23.9307 30.3851 24.0381 30.5674C24.1488 30.7497 24.2969 30.8962 24.4824 31.0068C24.6712 31.1143 24.9056 31.168 25.1855 31.168ZM31.5381 30.5918V26.5293H32.4463V31.8125H31.582L31.5381 30.5918ZM31.709 29.4785L32.085 29.4688C32.085 29.8203 32.0475 30.1458 31.9727 30.4453C31.901 30.7415 31.7839 30.9987 31.6211 31.2168C31.4583 31.4349 31.2451 31.6058 30.9814 31.7295C30.7178 31.8499 30.3971 31.9102 30.0195 31.9102C29.7624 31.9102 29.5264 31.8727 29.3115 31.7979C29.0999 31.723 28.9176 31.6074 28.7646 31.4512C28.6117 31.2949 28.4928 31.0915 28.4082 30.8408C28.3268 30.5902 28.2861 30.2891 28.2861 29.9375V26.5293H29.1895V29.9473C29.1895 30.1849 29.2155 30.3818 29.2676 30.5381C29.3229 30.6911 29.3962 30.8132 29.4873 30.9043C29.5817 30.9922 29.6859 31.054 29.7998 31.0898C29.917 31.1257 30.0374 31.1436 30.1611 31.1436C30.5452 31.1436 30.8496 31.0703 31.0742 30.9238C31.2988 30.7741 31.46 30.5739 31.5576 30.3232C31.6585 30.0693 31.709 29.7878 31.709 29.4785ZM34.8047 24.3125V31.8125H33.8965V24.3125H34.8047ZM38.4668 26.5293V27.2227H35.6104V26.5293H38.4668ZM36.5771 25.2451H37.4805V30.5039C37.4805 30.6829 37.5081 30.818 37.5635 30.9092C37.6188 31.0003 37.6904 31.0605 37.7783 31.0898C37.8662 31.1191 37.9606 31.1338 38.0615 31.1338C38.1364 31.1338 38.2145 31.1273 38.2959 31.1143C38.3805 31.098 38.444 31.085 38.4863 31.0752L38.4912 31.8125C38.4196 31.8353 38.3252 31.8564 38.208 31.876C38.0941 31.8988 37.9557 31.9102 37.793 31.9102C37.5716 31.9102 37.3682 31.8662 37.1826 31.7783C36.9971 31.6904 36.849 31.5439 36.7383 31.3389C36.6309 31.1305 36.5771 30.8506 36.5771 30.499V25.2451ZM42.7588 30.5918V26.5293H43.667V31.8125H42.8027L42.7588 30.5918ZM42.9297 29.4785L43.3057 29.4688C43.3057 29.8203 43.2682 30.1458 43.1934 30.4453C43.1217 30.7415 43.0046 30.9987 42.8418 31.2168C42.679 31.4349 42.4658 31.6058 42.2021 31.7295C41.9385 31.8499 41.6178 31.9102 41.2402 31.9102C40.9831 31.9102 40.7471 31.8727 40.5322 31.7979C40.3206 31.723 40.1383 31.6074 39.9854 31.4512C39.8324 31.2949 39.7135 31.0915 39.6289 30.8408C39.5475 30.5902 39.5068 30.2891 39.5068 29.9375V26.5293H40.4102V29.9473C40.4102 30.1849 40.4362 30.3818 40.4883 30.5381C40.5436 30.6911 40.6169 30.8132 40.708 30.9043C40.8024 30.9922 40.9066 31.054 41.0205 31.0898C41.1377 31.1257 41.2581 31.1436 41.3818 31.1436C41.766 31.1436 42.0703 31.0703 42.2949 30.9238C42.5195 30.7741 42.6807 30.5739 42.7783 30.3232C42.8792 30.0693 42.9297 29.7878 42.9297 29.4785ZM45.9473 27.3594V31.8125H45.0439V26.5293H45.9229L45.9473 27.3594ZM47.5977 26.5L47.5928 27.3398C47.5179 27.3236 47.4463 27.3138 47.3779 27.3105C47.3128 27.304 47.238 27.3008 47.1533 27.3008C46.945 27.3008 46.7611 27.3333 46.6016 27.3984C46.4421 27.4635 46.307 27.5547 46.1963 27.6719C46.0856 27.7891 45.9977 27.929 45.9326 28.0918C45.8708 28.2513 45.8301 28.4271 45.8105 28.6191L45.5566 28.7656C45.5566 28.4466 45.5876 28.1471 45.6494 27.8672C45.7145 27.5872 45.8138 27.3398 45.9473 27.125C46.0807 26.9069 46.25 26.7376 46.4551 26.6172C46.6634 26.4935 46.9108 26.4316 47.1973 26.4316C47.2624 26.4316 47.3372 26.4398 47.4219 26.4561C47.5065 26.4691 47.5651 26.4837 47.5977 26.5ZM51.3525 30.9092V28.1895C51.3525 27.9811 51.3102 27.8005 51.2256 27.6475C51.1442 27.4912 51.0205 27.3708 50.8545 27.2861C50.6885 27.2015 50.4834 27.1592 50.2393 27.1592C50.0114 27.1592 49.8112 27.1982 49.6387 27.2764C49.4694 27.3545 49.3359 27.457 49.2383 27.584C49.1439 27.7109 49.0967 27.8477 49.0967 27.9941H48.1934C48.1934 27.8053 48.2422 27.6182 48.3398 27.4326C48.4375 27.2471 48.5775 27.0794 48.7598 26.9297C48.9453 26.7767 49.1667 26.6562 49.4238 26.5684C49.6842 26.4772 49.974 26.4316 50.293 26.4316C50.6771 26.4316 51.0156 26.4967 51.3086 26.627C51.6048 26.7572 51.8359 26.9541 52.002 27.2178C52.1712 27.4782 52.2559 27.8053 52.2559 28.1992V30.6602C52.2559 30.8359 52.2705 31.0231 52.2998 31.2217C52.3324 31.4202 52.3796 31.5911 52.4414 31.7344V31.8125H51.499C51.4535 31.7083 51.4176 31.57 51.3916 31.3975C51.3656 31.2217 51.3525 31.0589 51.3525 30.9092ZM51.5088 28.6094L51.5186 29.2441H50.6055C50.3483 29.2441 50.1188 29.2653 49.917 29.3076C49.7152 29.3467 49.5459 29.4069 49.4092 29.4883C49.2725 29.5697 49.1683 29.6722 49.0967 29.7959C49.0251 29.9163 48.9893 30.0579 48.9893 30.2207C48.9893 30.3867 49.0267 30.5381 49.1016 30.6748C49.1764 30.8115 49.2887 30.9206 49.4385 31.002C49.5915 31.0801 49.7786 31.1191 50 31.1191C50.2767 31.1191 50.5208 31.0605 50.7324 30.9434C50.944 30.8262 51.1117 30.6829 51.2354 30.5137C51.3623 30.3444 51.4307 30.18 51.4404 30.0205L51.8262 30.4551C51.8034 30.5918 51.7415 30.7432 51.6406 30.9092C51.5397 31.0752 51.4046 31.2347 51.2354 31.3877C51.0693 31.5374 50.8708 31.6628 50.6396 31.7637C50.4118 31.8613 50.1546 31.9102 49.8682 31.9102C49.5101 31.9102 49.196 31.8402 48.9258 31.7002C48.6589 31.5602 48.4505 31.373 48.3008 31.1387C48.1543 30.901 48.0811 30.6357 48.0811 30.3428C48.0811 30.0596 48.1364 29.8105 48.2471 29.5957C48.3577 29.3776 48.5173 29.1969 48.7256 29.0537C48.9339 28.9072 49.1846 28.7965 49.4775 28.7217C49.7705 28.6468 50.0977 28.6094 50.459 28.6094H51.5088ZM54.6582 24.3125V31.8125H53.75V24.3125H54.6582ZM63.0176 29.5518H63.9551C63.9062 30.001 63.7777 30.403 63.5693 30.7578C63.361 31.1126 63.0664 31.3942 62.6855 31.6025C62.3047 31.8076 61.8294 31.9102 61.2598 31.9102C60.8431 31.9102 60.4639 31.832 60.1221 31.6758C59.7835 31.5195 59.4922 31.2982 59.248 31.0117C59.0039 30.722 58.8151 30.3753 58.6816 29.9717C58.5514 29.5648 58.4863 29.1123 58.4863 28.6143V27.9062C58.4863 27.4082 58.5514 26.9574 58.6816 26.5537C58.8151 26.1468 59.0055 25.7985 59.2529 25.5088C59.5036 25.2191 59.8047 24.9961 60.1562 24.8398C60.5078 24.6836 60.9033 24.6055 61.3428 24.6055C61.8799 24.6055 62.334 24.7064 62.7051 24.9082C63.0762 25.11 63.3643 25.39 63.5693 25.748C63.7777 26.1029 63.9062 26.5146 63.9551 26.9834H63.0176C62.972 26.6514 62.8874 26.3665 62.7637 26.1289C62.64 25.888 62.4642 25.7025 62.2363 25.5723C62.0085 25.4421 61.7106 25.377 61.3428 25.377C61.027 25.377 60.7487 25.4372 60.5078 25.5576C60.2702 25.6781 60.07 25.849 59.9072 26.0703C59.7477 26.2917 59.6273 26.557 59.5459 26.8662C59.4645 27.1755 59.4238 27.5189 59.4238 27.8965V28.6143C59.4238 28.9626 59.4596 29.2897 59.5312 29.5957C59.6061 29.9017 59.7184 30.1702 59.8682 30.4014C60.0179 30.6325 60.2083 30.8148 60.4395 30.9482C60.6706 31.0785 60.944 31.1436 61.2598 31.1436C61.6602 31.1436 61.9792 31.0801 62.2168 30.9531C62.4544 30.8262 62.6335 30.6439 62.7539 30.4062C62.8776 30.1686 62.9655 29.8838 63.0176 29.5518ZM66.084 26.5293V31.8125H65.1758V26.5293H66.084ZM65.1074 25.1279C65.1074 24.9814 65.1514 24.8577 65.2393 24.7568C65.3304 24.6559 65.4639 24.6055 65.6396 24.6055C65.8122 24.6055 65.944 24.6559 66.0352 24.7568C66.1296 24.8577 66.1768 24.9814 66.1768 25.1279C66.1768 25.2679 66.1296 25.3883 66.0352 25.4893C65.944 25.5869 65.8122 25.6357 65.6396 25.6357C65.4639 25.6357 65.3304 25.5869 65.2393 25.4893C65.1514 25.3883 65.1074 25.2679 65.1074 25.1279ZM69.7461 26.5293V27.2227H66.8896V26.5293H69.7461ZM67.8564 25.2451H68.7598V30.5039C68.7598 30.6829 68.7874 30.818 68.8428 30.9092C68.8981 31.0003 68.9697 31.0605 69.0576 31.0898C69.1455 31.1191 69.2399 31.1338 69.3408 31.1338C69.4157 31.1338 69.4938 31.1273 69.5752 31.1143C69.6598 31.098 69.7233 31.085 69.7656 31.0752L69.7705 31.8125C69.6989 31.8353 69.6045 31.8564 69.4873 31.876C69.3734 31.8988 69.235 31.9102 69.0723 31.9102C68.8509 31.9102 68.6475 31.8662 68.4619 31.7783C68.2764 31.6904 68.1283 31.5439 68.0176 31.3389C67.9102 31.1305 67.8564 30.8506 67.8564 30.499V25.2451ZM71.7871 26.5293V31.8125H70.8789V26.5293H71.7871ZM70.8105 25.1279C70.8105 24.9814 70.8545 24.8577 70.9424 24.7568C71.0335 24.6559 71.167 24.6055 71.3428 24.6055C71.5153 24.6055 71.6471 24.6559 71.7383 24.7568C71.8327 24.8577 71.8799 24.9814 71.8799 25.1279C71.8799 25.2679 71.8327 25.3883 71.7383 25.4893C71.6471 25.5869 71.5153 25.6357 71.3428 25.6357C71.167 25.6357 71.0335 25.5869 70.9424 25.4893C70.8545 25.3883 70.8105 25.2679 70.8105 25.1279ZM77.1729 31.0703V31.8125H73.3301V31.0703H77.1729ZM77.0312 27.1689L73.5352 31.8125H72.9834V31.1484L76.4551 26.5293H77.0312V27.1689ZM76.6309 26.5293V27.2764H73.0225V26.5293H76.6309ZM80.3125 31.9102C79.9447 31.9102 79.611 31.8483 79.3115 31.7246C79.0153 31.5977 78.7598 31.4202 78.5449 31.1924C78.3333 30.9645 78.1706 30.6943 78.0566 30.3818C77.9427 30.0693 77.8857 29.7275 77.8857 29.3564V29.1514C77.8857 28.7217 77.9492 28.3392 78.0762 28.0039C78.2031 27.6654 78.3757 27.3789 78.5938 27.1445C78.8118 26.9102 79.0592 26.7327 79.3359 26.6123C79.6126 26.4919 79.8991 26.4316 80.1953 26.4316C80.5729 26.4316 80.8984 26.4967 81.1719 26.627C81.4486 26.7572 81.6748 26.9395 81.8506 27.1738C82.0264 27.4049 82.1566 27.6784 82.2412 27.9941C82.3258 28.3066 82.3682 28.6484 82.3682 29.0195V29.4248H78.4229V28.6875H81.4648V28.6191C81.4518 28.3848 81.403 28.1569 81.3184 27.9355C81.237 27.7142 81.1068 27.5319 80.9277 27.3887C80.7487 27.2454 80.5046 27.1738 80.1953 27.1738C79.9902 27.1738 79.8014 27.2178 79.6289 27.3057C79.4564 27.3903 79.3083 27.5173 79.1846 27.6865C79.0609 27.8558 78.9648 28.0625 78.8965 28.3066C78.8281 28.5508 78.7939 28.8324 78.7939 29.1514V29.3564C78.7939 29.6071 78.8281 29.8431 78.8965 30.0645C78.9681 30.2826 79.0706 30.4746 79.2041 30.6406C79.3408 30.8066 79.5052 30.9368 79.6973 31.0312C79.8926 31.1257 80.1139 31.1729 80.3613 31.1729C80.6803 31.1729 80.9505 31.1077 81.1719 30.9775C81.3932 30.8473 81.5869 30.6732 81.7529 30.4551L82.2998 30.8896C82.1859 31.0622 82.041 31.2266 81.8652 31.3828C81.6895 31.5391 81.473 31.666 81.2158 31.7637C80.9619 31.8613 80.6608 31.9102 80.3125 31.9102ZM84.3262 27.6572V31.8125H83.4229V26.5293H84.2773L84.3262 27.6572ZM84.1113 28.9707L83.7354 28.9561C83.7386 28.5947 83.7923 28.2611 83.8965 27.9551C84.0007 27.6458 84.1471 27.3773 84.3359 27.1494C84.5247 26.9215 84.7493 26.7458 85.0098 26.6221C85.2734 26.4951 85.5648 26.4316 85.8838 26.4316C86.1442 26.4316 86.3786 26.4674 86.5869 26.5391C86.7952 26.6074 86.9727 26.7181 87.1191 26.8711C87.2689 27.0241 87.3828 27.2227 87.4609 27.4668C87.5391 27.7077 87.5781 28.0023 87.5781 28.3506V31.8125H86.6699V28.3408C86.6699 28.0641 86.6292 27.8428 86.5479 27.6768C86.4665 27.5075 86.3477 27.3854 86.1914 27.3105C86.0352 27.2324 85.8431 27.1934 85.6152 27.1934C85.3906 27.1934 85.1855 27.2406 85 27.335C84.8177 27.4294 84.6598 27.5596 84.5264 27.7256C84.3962 27.8916 84.2936 28.082 84.2188 28.2969C84.1471 28.5085 84.1113 28.7331 84.1113 28.9707ZM92.0264 30.4111C92.0264 30.2809 91.9971 30.1605 91.9385 30.0498C91.8831 29.9359 91.7676 29.8333 91.5918 29.7422C91.4193 29.6478 91.1589 29.5664 90.8105 29.498C90.5176 29.4362 90.2523 29.363 90.0146 29.2783C89.7803 29.1937 89.5801 29.0911 89.4141 28.9707C89.2513 28.8503 89.126 28.7087 89.0381 28.5459C88.9502 28.3831 88.9062 28.1927 88.9062 27.9746C88.9062 27.7663 88.9518 27.5693 89.043 27.3838C89.1374 27.1982 89.2692 27.0339 89.4385 26.8906C89.611 26.7474 89.8177 26.6351 90.0586 26.5537C90.2995 26.4723 90.568 26.4316 90.8643 26.4316C91.2874 26.4316 91.6488 26.5065 91.9482 26.6562C92.2477 26.806 92.4772 27.0062 92.6367 27.2568C92.7962 27.5042 92.876 27.7793 92.876 28.082H91.9727C91.9727 27.9355 91.9287 27.7939 91.8408 27.6572C91.7562 27.5173 91.6309 27.4017 91.4648 27.3105C91.3021 27.2194 91.1019 27.1738 90.8643 27.1738C90.6136 27.1738 90.4102 27.2129 90.2539 27.291C90.1009 27.3659 89.9886 27.4619 89.917 27.5791C89.8486 27.6963 89.8145 27.82 89.8145 27.9502C89.8145 28.0479 89.8307 28.1357 89.8633 28.2139C89.8991 28.2887 89.9609 28.3587 90.0488 28.4238C90.1367 28.4857 90.2604 28.5443 90.4199 28.5996C90.5794 28.6549 90.7829 28.7103 91.0303 28.7656C91.4632 28.8633 91.8197 28.9805 92.0996 29.1172C92.3796 29.2539 92.5879 29.4215 92.7246 29.6201C92.8613 29.8187 92.9297 30.0596 92.9297 30.3428C92.9297 30.5739 92.8809 30.7855 92.7832 30.9775C92.6888 31.1696 92.5505 31.3356 92.3682 31.4756C92.1891 31.6123 91.9743 31.7197 91.7236 31.7979C91.4762 31.8727 91.1979 31.9102 90.8887 31.9102C90.4232 31.9102 90.0293 31.8271 89.707 31.6611C89.3848 31.4951 89.1406 31.2803 88.9746 31.0166C88.8086 30.7529 88.7256 30.4746 88.7256 30.1816H89.6338C89.6468 30.429 89.7184 30.626 89.8486 30.7725C89.9788 30.9157 90.1383 31.0182 90.3271 31.0801C90.516 31.1387 90.7031 31.168 90.8887 31.168C91.1361 31.168 91.3428 31.1354 91.5088 31.0703C91.6781 31.0052 91.8066 30.9157 91.8945 30.8018C91.9824 30.6878 92.0264 30.5576 92.0264 30.4111ZM95.0195 24.3125V31.8125H94.1162V24.3125H95.0195ZM94.8047 28.9707L94.4287 28.9561C94.432 28.5947 94.4857 28.2611 94.5898 27.9551C94.694 27.6458 94.8405 27.3773 95.0293 27.1494C95.2181 26.9215 95.4427 26.7458 95.7031 26.6221C95.9668 26.4951 96.2581 26.4316 96.5771 26.4316C96.8376 26.4316 97.0719 26.4674 97.2803 26.5391C97.4886 26.6074 97.666 26.7181 97.8125 26.8711C97.9622 27.0241 98.0762 27.2227 98.1543 27.4668C98.2324 27.7077 98.2715 28.0023 98.2715 28.3506V31.8125H97.3633V28.3408C97.3633 28.0641 97.3226 27.8428 97.2412 27.6768C97.1598 27.5075 97.041 27.3854 96.8848 27.3105C96.7285 27.2324 96.5365 27.1934 96.3086 27.1934C96.084 27.1934 95.8789 27.2406 95.6934 27.335C95.5111 27.4294 95.3532 27.5596 95.2197 27.7256C95.0895 27.8916 94.987 28.082 94.9121 28.2969C94.8405 28.5085 94.8047 28.7331 94.8047 28.9707ZM100.605 26.5293V31.8125H99.6973V26.5293H100.605ZM99.6289 25.1279C99.6289 24.9814 99.6729 24.8577 99.7607 24.7568C99.8519 24.6559 99.9854 24.6055 100.161 24.6055C100.334 24.6055 100.465 24.6559 100.557 24.7568C100.651 24.8577 100.698 24.9814 100.698 25.1279C100.698 25.2679 100.651 25.3883 100.557 25.4893C100.465 25.5869 100.334 25.6357 100.161 25.6357C99.9854 25.6357 99.8519 25.5869 99.7607 25.4893C99.6729 25.3883 99.6289 25.2679 99.6289 25.1279ZM102.959 27.5449V33.8438H102.051V26.5293H102.881L102.959 27.5449ZM106.519 29.127V29.2295C106.519 29.6136 106.473 29.9701 106.382 30.2988C106.291 30.6243 106.157 30.9076 105.981 31.1484C105.809 31.3893 105.596 31.5765 105.342 31.71C105.088 31.8434 104.797 31.9102 104.468 31.9102C104.132 31.9102 103.836 31.8548 103.579 31.7441C103.322 31.6335 103.104 31.4723 102.925 31.2607C102.746 31.0492 102.603 30.7952 102.495 30.499C102.391 30.2028 102.319 29.8691 102.28 29.498V28.9512C102.319 28.5605 102.393 28.2106 102.5 27.9014C102.607 27.5921 102.749 27.3285 102.925 27.1104C103.104 26.889 103.32 26.7214 103.574 26.6074C103.828 26.4902 104.121 26.4316 104.453 26.4316C104.785 26.4316 105.08 26.4967 105.337 26.627C105.594 26.7539 105.811 26.9362 105.986 27.1738C106.162 27.4115 106.294 27.6963 106.382 28.0283C106.473 28.3571 106.519 28.7233 106.519 29.127ZM105.61 29.2295V29.127C105.61 28.8633 105.583 28.6159 105.527 28.3848C105.472 28.1504 105.386 27.9453 105.269 27.7695C105.155 27.5905 105.008 27.4505 104.829 27.3496C104.65 27.2454 104.437 27.1934 104.189 27.1934C103.962 27.1934 103.763 27.2324 103.594 27.3105C103.428 27.3887 103.286 27.4945 103.169 27.6279C103.052 27.7581 102.956 27.9079 102.881 28.0771C102.809 28.2432 102.756 28.4157 102.72 28.5947V29.8594C102.785 30.0872 102.876 30.3021 102.993 30.5039C103.11 30.7025 103.267 30.8636 103.462 30.9873C103.657 31.1077 103.903 31.168 104.199 31.168C104.443 31.168 104.653 31.1175 104.829 31.0166C105.008 30.9124 105.155 30.7708 105.269 30.5918C105.386 30.4128 105.472 30.2077 105.527 29.9766C105.583 29.7422 105.61 29.4932 105.61 29.2295ZM114.58 29.5518H115.518C115.469 30.001 115.34 30.403 115.132 30.7578C114.924 31.1126 114.629 31.3942 114.248 31.6025C113.867 31.8076 113.392 31.9102 112.822 31.9102C112.406 31.9102 112.026 31.832 111.685 31.6758C111.346 31.5195 111.055 31.2982 110.811 31.0117C110.566 30.722 110.378 30.3753 110.244 29.9717C110.114 29.5648 110.049 29.1123 110.049 28.6143V27.9062C110.049 27.4082 110.114 26.9574 110.244 26.5537C110.378 26.1468 110.568 25.7985 110.815 25.5088C111.066 25.2191 111.367 24.9961 111.719 24.8398C112.07 24.6836 112.466 24.6055 112.905 24.6055C113.442 24.6055 113.896 24.7064 114.268 24.9082C114.639 25.11 114.927 25.39 115.132 25.748C115.34 26.1029 115.469 26.5146 115.518 26.9834H114.58C114.535 26.6514 114.45 26.3665 114.326 26.1289C114.202 25.888 114.027 25.7025 113.799 25.5723C113.571 25.4421 113.273 25.377 112.905 25.377C112.59 25.377 112.311 25.4372 112.07 25.5576C111.833 25.6781 111.632 25.849 111.47 26.0703C111.31 26.2917 111.19 26.557 111.108 26.8662C111.027 27.1755 110.986 27.5189 110.986 27.8965V28.6143C110.986 28.9626 111.022 29.2897 111.094 29.5957C111.169 29.9017 111.281 30.1702 111.431 30.4014C111.58 30.6325 111.771 30.8148 112.002 30.9482C112.233 31.0785 112.507 31.1436 112.822 31.1436C113.223 31.1436 113.542 31.0801 113.779 30.9531C114.017 30.8262 114.196 30.6439 114.316 30.4062C114.44 30.1686 114.528 29.8838 114.58 29.5518ZM116.426 29.2295V29.1172C116.426 28.7363 116.481 28.3831 116.592 28.0576C116.702 27.7288 116.862 27.444 117.07 27.2031C117.279 26.959 117.531 26.7702 117.827 26.6367C118.123 26.5 118.455 26.4316 118.823 26.4316C119.194 26.4316 119.528 26.5 119.824 26.6367C120.124 26.7702 120.378 26.959 120.586 27.2031C120.798 27.444 120.959 27.7288 121.069 28.0576C121.18 28.3831 121.235 28.7363 121.235 29.1172V29.2295C121.235 29.6104 121.18 29.9635 121.069 30.2891C120.959 30.6146 120.798 30.8994 120.586 31.1436C120.378 31.3844 120.125 31.5732 119.829 31.71C119.536 31.8434 119.204 31.9102 118.833 31.9102C118.462 31.9102 118.128 31.8434 117.832 31.71C117.536 31.5732 117.282 31.3844 117.07 31.1436C116.862 30.8994 116.702 30.6146 116.592 30.2891C116.481 29.9635 116.426 29.6104 116.426 29.2295ZM117.329 29.1172V29.2295C117.329 29.4932 117.36 29.7422 117.422 29.9766C117.484 30.2077 117.576 30.4128 117.7 30.5918C117.827 30.7708 117.985 30.9124 118.174 31.0166C118.363 31.1175 118.582 31.168 118.833 31.168C119.08 31.168 119.297 31.1175 119.482 31.0166C119.671 30.9124 119.827 30.7708 119.951 30.5918C120.075 30.4128 120.168 30.2077 120.229 29.9766C120.295 29.7422 120.327 29.4932 120.327 29.2295V29.1172C120.327 28.8568 120.295 28.611 120.229 28.3799C120.168 28.1455 120.073 27.9388 119.946 27.7598C119.823 27.5775 119.666 27.4342 119.478 27.3301C119.292 27.2259 119.074 27.1738 118.823 27.1738C118.576 27.1738 118.358 27.2259 118.169 27.3301C117.983 27.4342 117.827 27.5775 117.7 27.7598C117.576 27.9388 117.484 28.1455 117.422 28.3799C117.36 28.611 117.329 28.8568 117.329 29.1172ZM123.267 27.5791V31.8125H122.358V26.5293H123.218L123.267 27.5791ZM123.081 28.9707L122.661 28.9561C122.664 28.5947 122.712 28.2611 122.803 27.9551C122.894 27.6458 123.029 27.3773 123.208 27.1494C123.387 26.9215 123.61 26.7458 123.877 26.6221C124.144 26.4951 124.453 26.4316 124.805 26.4316C125.052 26.4316 125.28 26.4674 125.488 26.5391C125.697 26.6074 125.877 26.7165 126.03 26.8662C126.183 27.016 126.302 27.208 126.387 27.4424C126.471 27.6768 126.514 27.96 126.514 28.292V31.8125H125.61V28.3359C125.61 28.0592 125.563 27.8379 125.469 27.6719C125.378 27.5059 125.247 27.3854 125.078 27.3105C124.909 27.2324 124.71 27.1934 124.482 27.1934C124.215 27.1934 123.993 27.2406 123.813 27.335C123.634 27.4294 123.491 27.5596 123.384 27.7256C123.276 27.8916 123.198 28.082 123.149 28.2969C123.104 28.5085 123.081 28.7331 123.081 28.9707ZM126.504 28.4727L125.898 28.6582C125.902 28.3685 125.949 28.0902 126.04 27.8232C126.134 27.5563 126.27 27.3187 126.445 27.1104C126.624 26.902 126.844 26.7376 127.104 26.6172C127.365 26.4935 127.663 26.4316 127.998 26.4316C128.281 26.4316 128.532 26.4691 128.75 26.5439C128.971 26.6188 129.157 26.7344 129.307 26.8906C129.46 27.0436 129.575 27.2406 129.653 27.4814C129.731 27.7223 129.771 28.0088 129.771 28.3408V31.8125H128.862V28.3311C128.862 28.0348 128.815 27.8053 128.721 27.6426C128.63 27.4766 128.499 27.361 128.33 27.2959C128.164 27.2275 127.965 27.1934 127.734 27.1934C127.536 27.1934 127.36 27.2275 127.207 27.2959C127.054 27.3643 126.925 27.4587 126.821 27.5791C126.717 27.6963 126.637 27.8314 126.582 27.9844C126.53 28.1374 126.504 28.3001 126.504 28.4727ZM132.041 27.5449V33.8438H131.133V26.5293H131.963L132.041 27.5449ZM135.601 29.127V29.2295C135.601 29.6136 135.555 29.9701 135.464 30.2988C135.373 30.6243 135.239 30.9076 135.063 31.1484C134.891 31.3893 134.678 31.5765 134.424 31.71C134.17 31.8434 133.879 31.9102 133.55 31.9102C133.215 31.9102 132.918 31.8548 132.661 31.7441C132.404 31.6335 132.186 31.4723 132.007 31.2607C131.828 31.0492 131.685 30.7952 131.577 30.499C131.473 30.2028 131.401 29.8691 131.362 29.498V28.9512C131.401 28.5605 131.475 28.2106 131.582 27.9014C131.689 27.5921 131.831 27.3285 132.007 27.1104C132.186 26.889 132.402 26.7214 132.656 26.6074C132.91 26.4902 133.203 26.4316 133.535 26.4316C133.867 26.4316 134.162 26.4967 134.419 26.627C134.676 26.7539 134.893 26.9362 135.068 27.1738C135.244 27.4115 135.376 27.6963 135.464 28.0283C135.555 28.3571 135.601 28.7233 135.601 29.127ZM134.692 29.2295V29.127C134.692 28.8633 134.665 28.6159 134.609 28.3848C134.554 28.1504 134.468 27.9453 134.351 27.7695C134.237 27.5905 134.09 27.4505 133.911 27.3496C133.732 27.2454 133.519 27.1934 133.271 27.1934C133.044 27.1934 132.845 27.2324 132.676 27.3105C132.51 27.3887 132.368 27.4945 132.251 27.6279C132.134 27.7581 132.038 27.9079 131.963 28.0771C131.891 28.2432 131.838 28.4157 131.802 28.5947V29.8594C131.867 30.0872 131.958 30.3021 132.075 30.5039C132.192 30.7025 132.349 30.8636 132.544 30.9873C132.739 31.1077 132.985 31.168 133.281 31.168C133.525 31.168 133.735 31.1175 133.911 31.0166C134.09 30.9124 134.237 30.7708 134.351 30.5918C134.468 30.4128 134.554 30.2077 134.609 29.9766C134.665 29.7422 134.692 29.4932 134.692 29.2295ZM138.945 31.9102C138.577 31.9102 138.244 31.8483 137.944 31.7246C137.648 31.5977 137.393 31.4202 137.178 31.1924C136.966 30.9645 136.803 30.6943 136.689 30.3818C136.576 30.0693 136.519 29.7275 136.519 29.3564V29.1514C136.519 28.7217 136.582 28.3392 136.709 28.0039C136.836 27.6654 137.008 27.3789 137.227 27.1445C137.445 26.9102 137.692 26.7327 137.969 26.6123C138.245 26.4919 138.532 26.4316 138.828 26.4316C139.206 26.4316 139.531 26.4967 139.805 26.627C140.081 26.7572 140.308 26.9395 140.483 27.1738C140.659 27.4049 140.789 27.6784 140.874 27.9941C140.959 28.3066 141.001 28.6484 141.001 29.0195V29.4248H137.056V28.6875H140.098V28.6191C140.085 28.3848 140.036 28.1569 139.951 27.9355C139.87 27.7142 139.74 27.5319 139.561 27.3887C139.382 27.2454 139.137 27.1738 138.828 27.1738C138.623 27.1738 138.434 27.2178 138.262 27.3057C138.089 27.3903 137.941 27.5173 137.817 27.6865C137.694 27.8558 137.598 28.0625 137.529 28.3066C137.461 28.5508 137.427 28.8324 137.427 29.1514V29.3564C137.427 29.6071 137.461 29.8431 137.529 30.0645C137.601 30.2826 137.703 30.4746 137.837 30.6406C137.974 30.8066 138.138 30.9368 138.33 31.0312C138.525 31.1257 138.747 31.1729 138.994 31.1729C139.313 31.1729 139.583 31.1077 139.805 30.9775C140.026 30.8473 140.22 30.6732 140.386 30.4551L140.933 30.8896C140.819 31.0622 140.674 31.2266 140.498 31.3828C140.322 31.5391 140.106 31.666 139.849 31.7637C139.595 31.8613 139.294 31.9102 138.945 31.9102ZM144.268 26.5293V27.2227H141.411V26.5293H144.268ZM142.378 25.2451H143.281V30.5039C143.281 30.6829 143.309 30.818 143.364 30.9092C143.42 31.0003 143.491 31.0605 143.579 31.0898C143.667 31.1191 143.761 31.1338 143.862 31.1338C143.937 31.1338 144.015 31.1273 144.097 31.1143C144.181 31.098 144.245 31.085 144.287 31.0752L144.292 31.8125C144.22 31.8353 144.126 31.8564 144.009 31.876C143.895 31.8988 143.757 31.9102 143.594 31.9102C143.372 31.9102 143.169 31.8662 142.983 31.7783C142.798 31.6904 142.65 31.5439 142.539 31.3389C142.432 31.1305 142.378 30.8506 142.378 30.499V25.2451ZM147.52 31.9102C147.152 31.9102 146.818 31.8483 146.519 31.7246C146.222 31.5977 145.967 31.4202 145.752 31.1924C145.54 30.9645 145.378 30.6943 145.264 30.3818C145.15 30.0693 145.093 29.7275 145.093 29.3564V29.1514C145.093 28.7217 145.156 28.3392 145.283 28.0039C145.41 27.6654 145.583 27.3789 145.801 27.1445C146.019 26.9102 146.266 26.7327 146.543 26.6123C146.82 26.4919 147.106 26.4316 147.402 26.4316C147.78 26.4316 148.105 26.4967 148.379 26.627C148.656 26.7572 148.882 26.9395 149.058 27.1738C149.233 27.4049 149.364 27.6784 149.448 27.9941C149.533 28.3066 149.575 28.6484 149.575 29.0195V29.4248H145.63V28.6875H148.672V28.6191C148.659 28.3848 148.61 28.1569 148.525 27.9355C148.444 27.7142 148.314 27.5319 148.135 27.3887C147.956 27.2454 147.712 27.1738 147.402 27.1738C147.197 27.1738 147.008 27.2178 146.836 27.3057C146.663 27.3903 146.515 27.5173 146.392 27.6865C146.268 27.8558 146.172 28.0625 146.104 28.3066C146.035 28.5508 146.001 28.8324 146.001 29.1514V29.3564C146.001 29.6071 146.035 29.8431 146.104 30.0645C146.175 30.2826 146.278 30.4746 146.411 30.6406C146.548 30.8066 146.712 30.9368 146.904 31.0312C147.1 31.1257 147.321 31.1729 147.568 31.1729C147.887 31.1729 148.158 31.1077 148.379 30.9775C148.6 30.8473 148.794 30.6732 148.96 30.4551L149.507 30.8896C149.393 31.0622 149.248 31.2266 149.072 31.3828C148.896 31.5391 148.68 31.666 148.423 31.7637C148.169 31.8613 147.868 31.9102 147.52 31.9102ZM151.533 27.6572V31.8125H150.63V26.5293H151.484L151.533 27.6572ZM151.318 28.9707L150.942 28.9561C150.946 28.5947 150.999 28.2611 151.104 27.9551C151.208 27.6458 151.354 27.3773 151.543 27.1494C151.732 26.9215 151.956 26.7458 152.217 26.6221C152.48 26.4951 152.772 26.4316 153.091 26.4316C153.351 26.4316 153.586 26.4674 153.794 26.5391C154.002 26.6074 154.18 26.7181 154.326 26.8711C154.476 27.0241 154.59 27.2227 154.668 27.4668C154.746 27.7077 154.785 28.0023 154.785 28.3506V31.8125H153.877V28.3408C153.877 28.0641 153.836 27.8428 153.755 27.6768C153.674 27.5075 153.555 27.3854 153.398 27.3105C153.242 27.2324 153.05 27.1934 152.822 27.1934C152.598 27.1934 152.393 27.2406 152.207 27.335C152.025 27.4294 151.867 27.5596 151.733 27.7256C151.603 27.8916 151.501 28.082 151.426 28.2969C151.354 28.5085 151.318 28.7331 151.318 28.9707ZM158.271 31.168C158.486 31.168 158.685 31.124 158.867 31.0361C159.049 30.9482 159.199 30.8278 159.316 30.6748C159.434 30.5186 159.5 30.3411 159.517 30.1426H160.376C160.36 30.4551 160.254 30.7464 160.059 31.0166C159.867 31.2835 159.614 31.5 159.302 31.666C158.989 31.8288 158.646 31.9102 158.271 31.9102C157.874 31.9102 157.528 31.8402 157.231 31.7002C156.938 31.5602 156.694 31.3682 156.499 31.124C156.307 30.8799 156.162 30.5999 156.064 30.2842C155.97 29.9652 155.923 29.6283 155.923 29.2734V29.0684C155.923 28.7135 155.97 28.3783 156.064 28.0625C156.162 27.7435 156.307 27.4619 156.499 27.2178C156.694 26.9736 156.938 26.7816 157.231 26.6416C157.528 26.5016 157.874 26.4316 158.271 26.4316C158.685 26.4316 159.046 26.5163 159.355 26.6855C159.665 26.8516 159.907 27.0794 160.083 27.3691C160.262 27.6556 160.36 27.9811 160.376 28.3457H159.517C159.5 28.1276 159.438 27.9307 159.331 27.7549C159.227 27.5791 159.084 27.4391 158.901 27.335C158.722 27.2275 158.512 27.1738 158.271 27.1738C157.995 27.1738 157.762 27.2292 157.573 27.3398C157.388 27.4473 157.24 27.5938 157.129 27.7793C157.021 27.9616 156.943 28.165 156.895 28.3896C156.849 28.611 156.826 28.8372 156.826 29.0684V29.2734C156.826 29.5046 156.849 29.7324 156.895 29.957C156.94 30.1816 157.017 30.3851 157.124 30.5674C157.235 30.7497 157.383 30.8962 157.568 31.0068C157.757 31.1143 157.992 31.168 158.271 31.168ZM162.876 31.2656L164.346 26.5293H165.312L163.193 32.6279C163.145 32.7581 163.079 32.8981 162.998 33.0479C162.92 33.2008 162.819 33.3457 162.695 33.4824C162.572 33.6191 162.422 33.7298 162.246 33.8145C162.074 33.9023 161.867 33.9463 161.626 33.9463C161.554 33.9463 161.463 33.9365 161.353 33.917C161.242 33.8975 161.164 33.8812 161.118 33.8682L161.113 33.1357C161.139 33.139 161.18 33.1423 161.235 33.1455C161.294 33.152 161.335 33.1553 161.357 33.1553C161.562 33.1553 161.737 33.1276 161.88 33.0723C162.023 33.0202 162.144 32.9307 162.241 32.8037C162.342 32.68 162.428 32.5091 162.5 32.291L162.876 31.2656ZM161.797 26.5293L163.169 30.6309L163.403 31.583L162.754 31.915L160.811 26.5293H161.797ZM173.037 29.5518H173.975C173.926 30.001 173.797 30.403 173.589 30.7578C173.381 31.1126 173.086 31.3942 172.705 31.6025C172.324 31.8076 171.849 31.9102 171.279 31.9102C170.863 31.9102 170.483 31.832 170.142 31.6758C169.803 31.5195 169.512 31.2982 169.268 31.0117C169.023 30.722 168.835 30.3753 168.701 29.9717C168.571 29.5648 168.506 29.1123 168.506 28.6143V27.9062C168.506 27.4082 168.571 26.9574 168.701 26.5537C168.835 26.1468 169.025 25.7985 169.272 25.5088C169.523 25.2191 169.824 24.9961 170.176 24.8398C170.527 24.6836 170.923 24.6055 171.362 24.6055C171.899 24.6055 172.354 24.7064 172.725 24.9082C173.096 25.11 173.384 25.39 173.589 25.748C173.797 26.1029 173.926 26.5146 173.975 26.9834H173.037C172.992 26.6514 172.907 26.3665 172.783 26.1289C172.66 25.888 172.484 25.7025 172.256 25.5723C172.028 25.4421 171.73 25.377 171.362 25.377C171.047 25.377 170.768 25.4372 170.527 25.5576C170.29 25.6781 170.09 25.849 169.927 26.0703C169.767 26.2917 169.647 26.557 169.565 26.8662C169.484 27.1755 169.443 27.5189 169.443 27.8965V28.6143C169.443 28.9626 169.479 29.2897 169.551 29.5957C169.626 29.9017 169.738 30.1702 169.888 30.4014C170.037 30.6325 170.228 30.8148 170.459 30.9482C170.69 31.0785 170.964 31.1436 171.279 31.1436C171.68 31.1436 171.999 31.0801 172.236 30.9531C172.474 30.8262 172.653 30.6439 172.773 30.4062C172.897 30.1686 172.985 29.8838 173.037 29.5518ZM177.314 31.9102C176.947 31.9102 176.613 31.8483 176.313 31.7246C176.017 31.5977 175.762 31.4202 175.547 31.1924C175.335 30.9645 175.173 30.6943 175.059 30.3818C174.945 30.0693 174.888 29.7275 174.888 29.3564V29.1514C174.888 28.7217 174.951 28.3392 175.078 28.0039C175.205 27.6654 175.378 27.3789 175.596 27.1445C175.814 26.9102 176.061 26.7327 176.338 26.6123C176.615 26.4919 176.901 26.4316 177.197 26.4316C177.575 26.4316 177.9 26.4967 178.174 26.627C178.451 26.7572 178.677 26.9395 178.853 27.1738C179.028 27.4049 179.159 27.6784 179.243 27.9941C179.328 28.3066 179.37 28.6484 179.37 29.0195V29.4248H175.425V28.6875H178.467V28.6191C178.454 28.3848 178.405 28.1569 178.32 27.9355C178.239 27.7142 178.109 27.5319 177.93 27.3887C177.751 27.2454 177.507 27.1738 177.197 27.1738C176.992 27.1738 176.803 27.2178 176.631 27.3057C176.458 27.3903 176.31 27.5173 176.187 27.6865C176.063 27.8558 175.967 28.0625 175.898 28.3066C175.83 28.5508 175.796 28.8324 175.796 29.1514V29.3564C175.796 29.6071 175.83 29.8431 175.898 30.0645C175.97 30.2826 176.073 30.4746 176.206 30.6406C176.343 30.8066 176.507 30.9368 176.699 31.0312C176.895 31.1257 177.116 31.1729 177.363 31.1729C177.682 31.1729 177.952 31.1077 178.174 30.9775C178.395 30.8473 178.589 30.6732 178.755 30.4551L179.302 30.8896C179.188 31.0622 179.043 31.2266 178.867 31.3828C178.691 31.5391 178.475 31.666 178.218 31.7637C177.964 31.8613 177.663 31.9102 177.314 31.9102ZM181.328 27.6572V31.8125H180.425V26.5293H181.279L181.328 27.6572ZM181.113 28.9707L180.737 28.9561C180.741 28.5947 180.794 28.2611 180.898 27.9551C181.003 27.6458 181.149 27.3773 181.338 27.1494C181.527 26.9215 181.751 26.7458 182.012 26.6221C182.275 26.4951 182.567 26.4316 182.886 26.4316C183.146 26.4316 183.381 26.4674 183.589 26.5391C183.797 26.6074 183.975 26.7181 184.121 26.8711C184.271 27.0241 184.385 27.2227 184.463 27.4668C184.541 27.7077 184.58 28.0023 184.58 28.3506V31.8125H183.672V28.3408C183.672 28.0641 183.631 27.8428 183.55 27.6768C183.468 27.5075 183.35 27.3854 183.193 27.3105C183.037 27.2324 182.845 27.1934 182.617 27.1934C182.393 27.1934 182.188 27.2406 182.002 27.335C181.82 27.4294 181.662 27.5596 181.528 27.7256C181.398 27.8916 181.296 28.082 181.221 28.2969C181.149 28.5085 181.113 28.7331 181.113 28.9707ZM188.164 26.5293V27.2227H185.308V26.5293H188.164ZM186.274 25.2451H187.178V30.5039C187.178 30.6829 187.205 30.818 187.261 30.9092C187.316 31.0003 187.388 31.0605 187.476 31.0898C187.563 31.1191 187.658 31.1338 187.759 31.1338C187.834 31.1338 187.912 31.1273 187.993 31.1143C188.078 31.098 188.141 31.085 188.184 31.0752L188.188 31.8125C188.117 31.8353 188.022 31.8564 187.905 31.876C187.791 31.8988 187.653 31.9102 187.49 31.9102C187.269 31.9102 187.065 31.8662 186.88 31.7783C186.694 31.6904 186.546 31.5439 186.436 31.3389C186.328 31.1305 186.274 30.8506 186.274 30.499V25.2451ZM191.416 31.9102C191.048 31.9102 190.715 31.8483 190.415 31.7246C190.119 31.5977 189.863 31.4202 189.648 31.1924C189.437 30.9645 189.274 30.6943 189.16 30.3818C189.046 30.0693 188.989 29.7275 188.989 29.3564V29.1514C188.989 28.7217 189.053 28.3392 189.18 28.0039C189.307 27.6654 189.479 27.3789 189.697 27.1445C189.915 26.9102 190.163 26.7327 190.439 26.6123C190.716 26.4919 191.003 26.4316 191.299 26.4316C191.676 26.4316 192.002 26.4967 192.275 26.627C192.552 26.7572 192.778 26.9395 192.954 27.1738C193.13 27.4049 193.26 27.6784 193.345 27.9941C193.429 28.3066 193.472 28.6484 193.472 29.0195V29.4248H189.526V28.6875H192.568V28.6191C192.555 28.3848 192.507 28.1569 192.422 27.9355C192.34 27.7142 192.21 27.5319 192.031 27.3887C191.852 27.2454 191.608 27.1738 191.299 27.1738C191.094 27.1738 190.905 27.2178 190.732 27.3057C190.56 27.3903 190.412 27.5173 190.288 27.6865C190.164 27.8558 190.068 28.0625 190 28.3066C189.932 28.5508 189.897 28.8324 189.897 29.1514V29.3564C189.897 29.6071 189.932 29.8431 190 30.0645C190.072 30.2826 190.174 30.4746 190.308 30.6406C190.444 30.8066 190.609 30.9368 190.801 31.0312C190.996 31.1257 191.217 31.1729 191.465 31.1729C191.784 31.1729 192.054 31.1077 192.275 30.9775C192.497 30.8473 192.69 30.6732 192.856 30.4551L193.403 30.8896C193.289 31.0622 193.145 31.2266 192.969 31.3828C192.793 31.5391 192.576 31.666 192.319 31.7637C192.065 31.8613 191.764 31.9102 191.416 31.9102ZM195.43 27.3594V31.8125H194.526V26.5293H195.405L195.43 27.3594ZM197.08 26.5L197.075 27.3398C197 27.3236 196.929 27.3138 196.86 27.3105C196.795 27.304 196.72 27.3008 196.636 27.3008C196.427 27.3008 196.243 27.3333 196.084 27.3984C195.924 27.4635 195.789 27.5547 195.679 27.6719C195.568 27.7891 195.48 27.929 195.415 28.0918C195.353 28.2513 195.312 28.4271 195.293 28.6191L195.039 28.7656C195.039 28.4466 195.07 28.1471 195.132 27.8672C195.197 27.5872 195.296 27.3398 195.43 27.125C195.563 26.9069 195.732 26.7376 195.938 26.6172C196.146 26.4935 196.393 26.4316 196.68 26.4316C196.745 26.4316 196.82 26.4398 196.904 26.4561C196.989 26.4691 197.048 26.4837 197.08 26.5Z" fill="white"/>
</g>
<defs>
<clipPath id="clip0_371_206">
<rect width="197" height="34" fill="white"/>
</clipPath>
</defs>
</svg>
