<svg width="158" height="28" viewBox="0 0 158 28" fill="none" xmlns="http://www.w3.org/2000/svg">
<g clip-path="url(#clip0_371_206)">
<path d="M2.60742 2.78125H5.08789L8.74023 13.2207L12.3926 2.78125H14.873L9.73633 17H7.74414L2.60742 2.78125ZM1.26953 2.78125H3.74023L4.18945 12.957V17H1.26953V2.78125ZM13.7402 2.78125H16.2207V17H13.291V12.957L13.7402 2.78125ZM21.7188 2.78125V17H18.7891V2.78125H21.7188ZM30.2344 2.78125L24.5996 9.80273L21.3477 13.2988L20.8203 10.5254L23.0176 7.51758L26.6406 2.78125H30.2344ZM26.9043 17L22.7148 10.4277L24.8828 8.61133L30.3711 17H26.9043ZM32.8418 2.78125H35.3223L38.9746 13.2207L42.627 2.78125H45.1074L39.9707 17H37.9785L32.8418 2.78125ZM31.5039 2.78125H33.9746L34.4238 12.957V17H31.5039V2.78125ZM43.9746 2.78125H46.4551V17H43.5254V12.957L43.9746 2.78125ZM57.2656 12.2832H60.1855C60.127 13.2402 59.8633 14.0898 59.3945 14.832C58.9323 15.5742 58.2845 16.1536 57.4512 16.5703C56.6243 16.987 55.6283 17.1953 54.4629 17.1953C53.5514 17.1953 52.7344 17.0391 52.0117 16.7266C51.2891 16.4076 50.6706 15.9518 50.1562 15.3594C49.6484 14.7669 49.2611 14.0508 48.9941 13.2109C48.7272 12.3711 48.5938 11.4303 48.5938 10.3887V9.40234C48.5938 8.36068 48.7305 7.41992 49.0039 6.58008C49.2839 5.73372 49.681 5.01432 50.1953 4.42188C50.7161 3.82943 51.3379 3.3737 52.0605 3.05469C52.7832 2.73568 53.5905 2.57617 54.4824 2.57617C55.6673 2.57617 56.6667 2.79102 57.4805 3.2207C58.3008 3.65039 58.9355 4.24284 59.3848 4.99805C59.8405 5.75326 60.1139 6.61263 60.2051 7.57617H57.2754C57.2428 7.00326 57.1289 6.51823 56.9336 6.12109C56.7383 5.71745 56.4421 5.41471 56.0449 5.21289C55.6543 5.00456 55.1335 4.90039 54.4824 4.90039C53.9941 4.90039 53.5677 4.99154 53.2031 5.17383C52.8385 5.35612 52.5326 5.63281 52.2852 6.00391C52.0378 6.375 51.8522 6.84375 51.7285 7.41016C51.6113 7.97005 51.5527 8.6276 51.5527 9.38281V10.3887C51.5527 11.1243 51.6081 11.7721 51.7188 12.332C51.8294 12.8854 51.9987 13.3542 52.2266 13.7383C52.4609 14.1159 52.7604 14.4023 53.125 14.5977C53.4961 14.7865 53.9421 14.8809 54.4629 14.8809C55.0749 14.8809 55.5794 14.7832 55.9766 14.5879C56.3737 14.3926 56.6764 14.1029 56.8848 13.7188C57.0996 13.3346 57.2266 12.8561 57.2656 12.2832ZM66.7969 17.1953C65.9766 17.1953 65.2409 17.0651 64.5898 16.8047C63.9388 16.5378 63.3854 16.1699 62.9297 15.7012C62.4805 15.2324 62.1354 14.6888 61.8945 14.0703C61.6536 13.4453 61.5332 12.7812 61.5332 12.0781V11.6875C61.5332 10.8867 61.6471 10.1543 61.875 9.49023C62.1029 8.82617 62.4284 8.25 62.8516 7.76172C63.2812 7.27344 63.8021 6.89909 64.4141 6.63867C65.026 6.37174 65.7161 6.23828 66.4844 6.23828C67.2331 6.23828 67.8971 6.36198 68.4766 6.60938C69.056 6.85677 69.541 7.20833 69.9316 7.66406C70.3288 8.11979 70.6283 8.66667 70.8301 9.30469C71.0319 9.9362 71.1328 10.6393 71.1328 11.4141V12.5859H62.7344V10.7109H68.3691V10.4961C68.3691 10.1055 68.2975 9.75716 68.1543 9.45117C68.0176 9.13867 67.8092 8.89128 67.5293 8.70898C67.2493 8.52669 66.8913 8.43555 66.4551 8.43555C66.084 8.43555 65.765 8.51693 65.498 8.67969C65.2311 8.84245 65.013 9.07031 64.8438 9.36328C64.681 9.65625 64.5573 10.0013 64.4727 10.3984C64.3945 10.7891 64.3555 11.2188 64.3555 11.6875V12.0781C64.3555 12.5013 64.4141 12.8919 64.5312 13.25C64.6549 13.6081 64.8275 13.9173 65.0488 14.1777C65.2767 14.4382 65.5501 14.64 65.8691 14.7832C66.1947 14.9264 66.5625 14.998 66.9727 14.998C67.4805 14.998 67.9525 14.9004 68.3887 14.7051C68.8314 14.5033 69.2122 14.2005 69.5312 13.7969L70.8984 15.2812C70.6771 15.6003 70.3743 15.9062 69.9902 16.1992C69.6126 16.4922 69.1569 16.7331 68.623 16.9219C68.0892 17.1042 67.4805 17.1953 66.7969 17.1953ZM75.4883 8.68945V17H72.6758V6.43359H75.3125L75.4883 8.68945ZM75.0781 11.3457H74.3164C74.3164 10.5645 74.4173 9.86133 74.6191 9.23633C74.821 8.60482 75.1042 8.06771 75.4688 7.625C75.8333 7.17578 76.2663 6.83398 76.7676 6.59961C77.2754 6.35872 77.8418 6.23828 78.4668 6.23828C78.9616 6.23828 79.4141 6.3099 79.8242 6.45312C80.2344 6.59635 80.5859 6.82422 80.8789 7.13672C81.1784 7.44922 81.4062 7.86263 81.5625 8.37695C81.7253 8.89128 81.8066 9.51953 81.8066 10.2617V17H78.9746V10.252C78.9746 9.7832 78.9095 9.41862 78.7793 9.1582C78.6491 8.89779 78.457 8.71549 78.2031 8.61133C77.9557 8.50065 77.6497 8.44531 77.2852 8.44531C76.9076 8.44531 76.5788 8.52018 76.2988 8.66992C76.0254 8.81966 75.7975 9.02799 75.6152 9.29492C75.4395 9.55534 75.306 9.86133 75.2148 10.2129C75.1237 10.5645 75.0781 10.9421 75.0781 11.3457ZM89.1211 6.43359V8.42578H82.9688V6.43359H89.1211ZM84.4922 3.82617H87.3047V13.8164C87.3047 14.1224 87.3438 14.3568 87.4219 14.5195C87.5065 14.6823 87.6302 14.7962 87.793 14.8613C87.9557 14.9199 88.1608 14.9492 88.4082 14.9492C88.584 14.9492 88.7402 14.9427 88.877 14.9297C89.0202 14.9102 89.1406 14.8906 89.2383 14.8711L89.248 16.9414C89.0072 17.0195 88.7467 17.0814 88.4668 17.127C88.1868 17.1725 87.8776 17.1953 87.5391 17.1953C86.9206 17.1953 86.3802 17.0944 85.918 16.8926C85.4622 16.6842 85.1107 16.3522 84.8633 15.8965C84.6159 15.4408 84.4922 14.8418 84.4922 14.0996V3.82617ZM95.5859 17.1953C94.7656 17.1953 94.0299 17.0651 93.3789 16.8047C92.7279 16.5378 92.1745 16.1699 91.7188 15.7012C91.2695 15.2324 90.9245 14.6888 90.6836 14.0703C90.4427 13.4453 90.3223 12.7812 90.3223 12.0781V11.6875C90.3223 10.8867 90.4362 10.1543 90.6641 9.49023C90.8919 8.82617 91.2174 8.25 91.6406 7.76172C92.0703 7.27344 92.5911 6.89909 93.2031 6.63867C93.8151 6.37174 94.5052 6.23828 95.2734 6.23828C96.0221 6.23828 96.6862 6.36198 97.2656 6.60938C97.8451 6.85677 98.3301 7.20833 98.7207 7.66406C99.1178 8.11979 99.4173 8.66667 99.6191 9.30469C99.821 9.9362 99.9219 10.6393 99.9219 11.4141V12.5859H91.5234V10.7109H97.1582V10.4961C97.1582 10.1055 97.0866 9.75716 96.9434 9.45117C96.8066 9.13867 96.5983 8.89128 96.3184 8.70898C96.0384 8.52669 95.6803 8.43555 95.2441 8.43555C94.873 8.43555 94.554 8.51693 94.2871 8.67969C94.0202 8.84245 93.8021 9.07031 93.6328 9.36328C93.4701 9.65625 93.3464 10.0013 93.2617 10.3984C93.1836 10.7891 93.1445 11.2188 93.1445 11.6875V12.0781C93.1445 12.5013 93.2031 12.8919 93.3203 13.25C93.444 13.6081 93.6165 13.9173 93.8379 14.1777C94.0658 14.4382 94.3392 14.64 94.6582 14.7832C94.9837 14.9264 95.3516 14.998 95.7617 14.998C96.2695 14.998 96.7415 14.9004 97.1777 14.7051C97.6204 14.5033 98.0013 14.2005 98.3203 13.7969L99.6875 15.2812C99.4661 15.6003 99.1634 15.9062 98.7793 16.1992C98.4017 16.4922 97.946 16.7331 97.4121 16.9219C96.8783 17.1042 96.2695 17.1953 95.5859 17.1953ZM104.336 8.73828V17H101.523V6.43359H104.17L104.336 8.73828ZM107.52 6.36523L107.471 8.97266C107.334 8.95312 107.168 8.93685 106.973 8.92383C106.784 8.9043 106.611 8.89453 106.455 8.89453C106.058 8.89453 105.713 8.94661 105.42 9.05078C105.133 9.14844 104.893 9.29492 104.697 9.49023C104.508 9.68555 104.365 9.92318 104.268 10.2031C104.176 10.4831 104.124 10.8021 104.111 11.1602L103.545 10.9844C103.545 10.3008 103.613 9.67253 103.75 9.09961C103.887 8.52018 104.085 8.01562 104.346 7.58594C104.613 7.15625 104.938 6.82422 105.322 6.58984C105.706 6.35547 106.146 6.23828 106.641 6.23828C106.797 6.23828 106.956 6.2513 107.119 6.27734C107.282 6.29688 107.415 6.32617 107.52 6.36523Z" fill="white"/>
<path d="M0.898438 21.3125H1.62891L3.49219 25.9492L5.35156 21.3125H6.08594L3.77344 27H3.20312L0.898438 21.3125ZM0.660156 21.3125H1.30469L1.41016 24.7812V27H0.660156V21.3125ZM5.67578 21.3125H6.32031V27H5.57031V24.7812L5.67578 21.3125ZM10.1211 26.0234V22.7734H10.8477V27H10.1562L10.1211 26.0234ZM10.2578 25.1328L10.5586 25.125C10.5586 25.4062 10.5286 25.6667 10.4688 25.9062C10.4115 26.1432 10.3177 26.349 10.1875 26.5234C10.0573 26.6979 9.88672 26.8346 9.67578 26.9336C9.46484 27.0299 9.20833 27.0781 8.90625 27.0781C8.70052 27.0781 8.51172 27.0482 8.33984 26.9883C8.17057 26.9284 8.02474 26.8359 7.90234 26.7109C7.77995 26.5859 7.6849 26.4232 7.61719 26.2227C7.55208 26.0221 7.51953 25.7812 7.51953 25.5V22.7734H8.24219V25.5078C8.24219 25.6979 8.26302 25.8555 8.30469 25.9805C8.34896 26.1029 8.40755 26.2005 8.48047 26.2734C8.55599 26.3438 8.63932 26.3932 8.73047 26.4219C8.82422 26.4505 8.92057 26.4648 9.01953 26.4648C9.32682 26.4648 9.57031 26.4062 9.75 26.2891C9.92969 26.1693 10.0586 26.0091 10.1367 25.8086C10.2174 25.6055 10.2578 25.3802 10.2578 25.1328ZM12.7344 21V27H12.0078V21H12.7344ZM15.6641 22.7734V23.3281H13.3789V22.7734H15.6641ZM14.1523 21.7461H14.875V25.9531C14.875 26.0964 14.8971 26.2044 14.9414 26.2773C14.9857 26.3503 15.043 26.3984 15.1133 26.4219C15.1836 26.4453 15.2591 26.457 15.3398 26.457C15.3997 26.457 15.4622 26.4518 15.5273 26.4414C15.5951 26.4284 15.6458 26.418 15.6797 26.4102L15.6836 27C15.6263 27.0182 15.5508 27.0352 15.457 27.0508C15.3659 27.069 15.2552 27.0781 15.125 27.0781C14.9479 27.0781 14.7852 27.043 14.6367 26.9727C14.4883 26.9023 14.3698 26.7852 14.2812 26.6211C14.1953 26.4544 14.1523 26.2305 14.1523 25.9492V21.7461ZM17.2969 22.7734V27H16.5703V22.7734H17.2969ZM16.5156 21.6523C16.5156 21.5352 16.5508 21.4362 16.6211 21.3555C16.694 21.2747 16.8008 21.2344 16.9414 21.2344C17.0794 21.2344 17.1849 21.2747 17.2578 21.3555C17.3333 21.4362 17.3711 21.5352 17.3711 21.6523C17.3711 21.7643 17.3333 21.8607 17.2578 21.9414C17.1849 22.0195 17.0794 22.0586 16.9414 22.0586C16.8008 22.0586 16.694 22.0195 16.6211 21.9414C16.5508 21.8607 16.5156 21.7643 16.5156 21.6523ZM20.1484 26.4844C20.3203 26.4844 20.4792 26.4492 20.625 26.3789C20.7708 26.3086 20.8906 26.2122 20.9844 26.0898C21.0781 25.9648 21.1315 25.8229 21.1445 25.6641H21.832C21.819 25.9141 21.7344 26.1471 21.5781 26.3633C21.4245 26.5768 21.2227 26.75 20.9727 26.8828C20.7227 27.013 20.4479 27.0781 20.1484 27.0781C19.8307 27.0781 19.5534 27.0221 19.3164 26.9102C19.082 26.7982 18.8867 26.6445 18.7305 26.4492C18.5768 26.2539 18.4609 26.0299 18.3828 25.7773C18.3073 25.5221 18.2695 25.2526 18.2695 24.9688V24.8047C18.2695 24.5208 18.3073 24.2526 18.3828 24C18.4609 23.7448 18.5768 23.5195 18.7305 23.3242C18.8867 23.1289 19.082 22.9753 19.3164 22.8633C19.5534 22.7513 19.8307 22.6953 20.1484 22.6953C20.4792 22.6953 20.7682 22.763 21.0156 22.8984C21.263 23.0312 21.457 23.2135 21.5977 23.4453C21.7409 23.6745 21.819 23.9349 21.832 24.2266H21.1445C21.1315 24.0521 21.082 23.8945 20.9961 23.7539C20.9128 23.6133 20.7982 23.5013 20.6523 23.418C20.5091 23.332 20.3411 23.2891 20.1484 23.2891C19.9271 23.2891 19.7409 23.3333 19.5898 23.4219C19.4414 23.5078 19.3229 23.625 19.2344 23.7734C19.1484 23.9193 19.0859 24.082 19.0469 24.2617C19.0104 24.4388 18.9922 24.6198 18.9922 24.8047V24.9688C18.9922 25.1536 19.0104 25.3359 19.0469 25.5156C19.0833 25.6953 19.1445 25.8581 19.2305 26.0039C19.319 26.1497 19.4375 26.2669 19.5859 26.3555C19.737 26.4414 19.9245 26.4844 20.1484 26.4844ZM25.2305 26.0234V22.7734H25.957V27H25.2656L25.2305 26.0234ZM25.3672 25.1328L25.668 25.125C25.668 25.4062 25.638 25.6667 25.5781 25.9062C25.5208 26.1432 25.4271 26.349 25.2969 26.5234C25.1667 26.6979 24.9961 26.8346 24.7852 26.9336C24.5742 27.0299 24.3177 27.0781 24.0156 27.0781C23.8099 27.0781 23.6211 27.0482 23.4492 26.9883C23.2799 26.9284 23.1341 26.8359 23.0117 26.7109C22.8893 26.5859 22.7943 26.4232 22.7266 26.2227C22.6615 26.0221 22.6289 25.7812 22.6289 25.5V22.7734H23.3516V25.5078C23.3516 25.6979 23.3724 25.8555 23.4141 25.9805C23.4583 26.1029 23.5169 26.2005 23.5898 26.2734C23.6654 26.3438 23.7487 26.3932 23.8398 26.4219C23.9336 26.4505 24.0299 26.4648 24.1289 26.4648C24.4362 26.4648 24.6797 26.4062 24.8594 26.2891C25.0391 26.1693 25.168 26.0091 25.2461 25.8086C25.3268 25.6055 25.3672 25.3802 25.3672 25.1328ZM27.8438 21V27H27.1172V21H27.8438ZM30.7734 22.7734V23.3281H28.4883V22.7734H30.7734ZM29.2617 21.7461H29.9844V25.9531C29.9844 26.0964 30.0065 26.2044 30.0508 26.2773C30.0951 26.3503 30.1523 26.3984 30.2227 26.4219C30.293 26.4453 30.3685 26.457 30.4492 26.457C30.5091 26.457 30.5716 26.4518 30.6367 26.4414C30.7044 26.4284 30.7552 26.418 30.7891 26.4102L30.793 27C30.7357 27.0182 30.6602 27.0352 30.5664 27.0508C30.4753 27.069 30.3646 27.0781 30.2344 27.0781C30.0573 27.0781 29.8945 27.043 29.7461 26.9727C29.5977 26.9023 29.4792 26.7852 29.3906 26.6211C29.3047 26.4544 29.2617 26.2305 29.2617 25.9492V21.7461ZM34.207 26.0234V22.7734H34.9336V27H34.2422L34.207 26.0234ZM34.3438 25.1328L34.6445 25.125C34.6445 25.4062 34.6146 25.6667 34.5547 25.9062C34.4974 26.1432 34.4036 26.349 34.2734 26.5234C34.1432 26.6979 33.9727 26.8346 33.7617 26.9336C33.5508 27.0299 33.2943 27.0781 32.9922 27.0781C32.7865 27.0781 32.5977 27.0482 32.4258 26.9883C32.2565 26.9284 32.1107 26.8359 31.9883 26.7109C31.8659 26.5859 31.7708 26.4232 31.7031 26.2227C31.638 26.0221 31.6055 25.7812 31.6055 25.5V22.7734H32.3281V25.5078C32.3281 25.6979 32.349 25.8555 32.3906 25.9805C32.4349 26.1029 32.4935 26.2005 32.5664 26.2734C32.6419 26.3438 32.7253 26.3932 32.8164 26.4219C32.9102 26.4505 33.0065 26.4648 33.1055 26.4648C33.4128 26.4648 33.6562 26.4062 33.8359 26.2891C34.0156 26.1693 34.1445 26.0091 34.2227 25.8086C34.3034 25.6055 34.3438 25.3802 34.3438 25.1328ZM36.7578 23.4375V27H36.0352V22.7734H36.7383L36.7578 23.4375ZM38.0781 22.75L38.0742 23.4219C38.0143 23.4089 37.957 23.401 37.9023 23.3984C37.8503 23.3932 37.7904 23.3906 37.7227 23.3906C37.556 23.3906 37.4089 23.4167 37.2812 23.4688C37.1536 23.5208 37.0456 23.5938 36.957 23.6875C36.8685 23.7812 36.7982 23.8932 36.7461 24.0234C36.6966 24.151 36.6641 24.2917 36.6484 24.4453L36.4453 24.5625C36.4453 24.3073 36.4701 24.0677 36.5195 23.8438C36.5716 23.6198 36.651 23.4219 36.7578 23.25C36.8646 23.0755 37 22.9401 37.1641 22.8438C37.3307 22.7448 37.5286 22.6953 37.7578 22.6953C37.8099 22.6953 37.8698 22.7018 37.9375 22.7148C38.0052 22.7253 38.0521 22.737 38.0781 22.75ZM41.082 26.2773V24.1016C41.082 23.9349 41.0482 23.7904 40.9805 23.668C40.9154 23.543 40.8164 23.4466 40.6836 23.3789C40.5508 23.3112 40.3867 23.2773 40.1914 23.2773C40.0091 23.2773 39.849 23.3086 39.7109 23.3711C39.5755 23.4336 39.4688 23.5156 39.3906 23.6172C39.3151 23.7188 39.2773 23.8281 39.2773 23.9453H38.5547C38.5547 23.7943 38.5938 23.6445 38.6719 23.4961C38.75 23.3477 38.862 23.2135 39.0078 23.0938C39.1562 22.9714 39.3333 22.875 39.5391 22.8047C39.7474 22.7318 39.9792 22.6953 40.2344 22.6953C40.5417 22.6953 40.8125 22.7474 41.0469 22.8516C41.2839 22.9557 41.4688 23.1133 41.6016 23.3242C41.737 23.5326 41.8047 23.7943 41.8047 24.1094V26.0781C41.8047 26.2188 41.8164 26.3685 41.8398 26.5273C41.8659 26.6862 41.9036 26.8229 41.9531 26.9375V27H41.1992C41.1628 26.9167 41.1341 26.806 41.1133 26.668C41.0924 26.5273 41.082 26.3971 41.082 26.2773ZM41.207 24.4375L41.2148 24.9453H40.4844C40.2786 24.9453 40.0951 24.9622 39.9336 24.9961C39.7721 25.0273 39.6367 25.0755 39.5273 25.1406C39.418 25.2057 39.3346 25.2878 39.2773 25.3867C39.2201 25.4831 39.1914 25.5964 39.1914 25.7266C39.1914 25.8594 39.2214 25.9805 39.2812 26.0898C39.3411 26.1992 39.431 26.2865 39.5508 26.3516C39.6732 26.4141 39.8229 26.4453 40 26.4453C40.2214 26.4453 40.4167 26.3984 40.5859 26.3047C40.7552 26.2109 40.8893 26.0964 40.9883 25.9609C41.0898 25.8255 41.1445 25.694 41.1523 25.5664L41.4609 25.9141C41.4427 26.0234 41.3932 26.1445 41.3125 26.2773C41.2318 26.4102 41.1237 26.5378 40.9883 26.6602C40.8555 26.7799 40.6966 26.8802 40.5117 26.9609C40.3294 27.0391 40.1237 27.0781 39.8945 27.0781C39.6081 27.0781 39.3568 27.0221 39.1406 26.9102C38.9271 26.7982 38.7604 26.6484 38.6406 26.4609C38.5234 26.2708 38.4648 26.0586 38.4648 25.8242C38.4648 25.5977 38.5091 25.3984 38.5977 25.2266C38.6862 25.0521 38.8138 24.9076 38.9805 24.793C39.1471 24.6758 39.3477 24.5872 39.582 24.5273C39.8164 24.4674 40.0781 24.4375 40.3672 24.4375H41.207ZM43.7266 21V27H43V21H43.7266ZM50.4141 25.1914H51.1641C51.125 25.5508 51.0221 25.8724 50.8555 26.1562C50.6888 26.4401 50.4531 26.6654 50.1484 26.832C49.8438 26.9961 49.4635 27.0781 49.0078 27.0781C48.6745 27.0781 48.3711 27.0156 48.0977 26.8906C47.8268 26.7656 47.5938 26.5885 47.3984 26.3594C47.2031 26.1276 47.0521 25.8503 46.9453 25.5273C46.8411 25.2018 46.7891 24.8398 46.7891 24.4414V23.875C46.7891 23.4766 46.8411 23.1159 46.9453 22.793C47.0521 22.4674 47.2044 22.1888 47.4023 21.957C47.6029 21.7253 47.8438 21.5469 48.125 21.4219C48.4062 21.2969 48.7227 21.2344 49.0742 21.2344C49.5039 21.2344 49.8672 21.3151 50.1641 21.4766C50.4609 21.638 50.6914 21.862 50.8555 22.1484C51.0221 22.4323 51.125 22.7617 51.1641 23.1367H50.4141C50.3776 22.8711 50.3099 22.6432 50.2109 22.4531C50.112 22.2604 49.9714 22.112 49.7891 22.0078C49.6068 21.9036 49.3685 21.8516 49.0742 21.8516C48.8216 21.8516 48.599 21.8997 48.4062 21.9961C48.2161 22.0924 48.056 22.2292 47.9258 22.4062C47.7982 22.5833 47.7018 22.7956 47.6367 23.043C47.5716 23.2904 47.5391 23.5651 47.5391 23.8672V24.4414C47.5391 24.7201 47.5677 24.9818 47.625 25.2266C47.6849 25.4714 47.7747 25.6862 47.8945 25.8711C48.0143 26.056 48.1667 26.2018 48.3516 26.3086C48.5365 26.4128 48.7552 26.4648 49.0078 26.4648C49.3281 26.4648 49.5833 26.4141 49.7734 26.3125C49.9635 26.2109 50.1068 26.0651 50.2031 25.875C50.3021 25.6849 50.3724 25.457 50.4141 25.1914ZM52.8672 22.7734V27H52.1406V22.7734H52.8672ZM52.0859 21.6523C52.0859 21.5352 52.1211 21.4362 52.1914 21.3555C52.2643 21.2747 52.3711 21.2344 52.5117 21.2344C52.6497 21.2344 52.7552 21.2747 52.8281 21.3555C52.9036 21.4362 52.9414 21.5352 52.9414 21.6523C52.9414 21.7643 52.9036 21.8607 52.8281 21.9414C52.7552 22.0195 52.6497 22.0586 52.5117 22.0586C52.3711 22.0586 52.2643 22.0195 52.1914 21.9414C52.1211 21.8607 52.0859 21.7643 52.0859 21.6523ZM55.7969 22.7734V23.3281H53.5117V22.7734H55.7969ZM54.2852 21.7461H55.0078V25.9531C55.0078 26.0964 55.0299 26.2044 55.0742 26.2773C55.1185 26.3503 55.1758 26.3984 55.2461 26.4219C55.3164 26.4453 55.3919 26.457 55.4727 26.457C55.5326 26.457 55.5951 26.4518 55.6602 26.4414C55.7279 26.4284 55.7786 26.418 55.8125 26.4102L55.8164 27C55.7591 27.0182 55.6836 27.0352 55.5898 27.0508C55.4987 27.069 55.388 27.0781 55.2578 27.0781C55.0807 27.0781 54.918 27.043 54.7695 26.9727C54.6211 26.9023 54.5026 26.7852 54.4141 26.6211C54.3281 26.4544 54.2852 26.2305 54.2852 25.9492V21.7461ZM57.4297 22.7734V27H56.7031V22.7734H57.4297ZM56.6484 21.6523C56.6484 21.5352 56.6836 21.4362 56.7539 21.3555C56.8268 21.2747 56.9336 21.2344 57.0742 21.2344C57.2122 21.2344 57.3177 21.2747 57.3906 21.3555C57.4661 21.4362 57.5039 21.5352 57.5039 21.6523C57.5039 21.7643 57.4661 21.8607 57.3906 21.9414C57.3177 22.0195 57.2122 22.0586 57.0742 22.0586C56.9336 22.0586 56.8268 22.0195 56.7539 21.9414C56.6836 21.8607 56.6484 21.7643 56.6484 21.6523ZM61.7383 26.4062V27H58.6641V26.4062H61.7383ZM61.625 23.2852L58.8281 27H58.3867V26.4688L61.1641 22.7734H61.625V23.2852ZM61.3047 22.7734V23.3711H58.418V22.7734H61.3047ZM64.25 27.0781C63.9557 27.0781 63.6888 27.0286 63.4492 26.9297C63.2122 26.8281 63.0078 26.6862 62.8359 26.5039C62.6667 26.3216 62.5365 26.1055 62.4453 25.8555C62.3542 25.6055 62.3086 25.332 62.3086 25.0352V24.8711C62.3086 24.5273 62.3594 24.2214 62.4609 23.9531C62.5625 23.6823 62.7005 23.4531 62.875 23.2656C63.0495 23.0781 63.2474 22.9362 63.4688 22.8398C63.6901 22.7435 63.9193 22.6953 64.1562 22.6953C64.4583 22.6953 64.7188 22.7474 64.9375 22.8516C65.1589 22.9557 65.3398 23.1016 65.4805 23.2891C65.6211 23.474 65.7253 23.6927 65.793 23.9453C65.8607 24.1953 65.8945 24.4688 65.8945 24.7656V25.0898H62.7383V24.5H65.1719V24.4453C65.1615 24.2578 65.1224 24.0755 65.0547 23.8984C64.9896 23.7214 64.8854 23.5755 64.7422 23.4609C64.599 23.3464 64.4036 23.2891 64.1562 23.2891C63.9922 23.2891 63.8411 23.3242 63.7031 23.3945C63.5651 23.4622 63.4466 23.5638 63.3477 23.6992C63.2487 23.8346 63.1719 24 63.1172 24.1953C63.0625 24.3906 63.0352 24.6159 63.0352 24.8711V25.0352C63.0352 25.2357 63.0625 25.4245 63.1172 25.6016C63.1745 25.776 63.2565 25.9297 63.3633 26.0625C63.4727 26.1953 63.6042 26.2995 63.7578 26.375C63.9141 26.4505 64.0911 26.4883 64.2891 26.4883C64.5443 26.4883 64.7604 26.4362 64.9375 26.332C65.1146 26.2279 65.2695 26.0885 65.4023 25.9141L65.8398 26.2617C65.7487 26.3997 65.6328 26.5312 65.4922 26.6562C65.3516 26.7812 65.1784 26.8828 64.9727 26.9609C64.7695 27.0391 64.5286 27.0781 64.25 27.0781ZM67.4609 23.6758V27H66.7383V22.7734H67.4219L67.4609 23.6758ZM67.2891 24.7266L66.9883 24.7148C66.9909 24.4258 67.0339 24.1589 67.1172 23.9141C67.2005 23.6667 67.3177 23.4518 67.4688 23.2695C67.6198 23.0872 67.7995 22.9466 68.0078 22.8477C68.2188 22.7461 68.4518 22.6953 68.707 22.6953C68.9154 22.6953 69.1029 22.724 69.2695 22.7812C69.4362 22.8359 69.5781 22.9245 69.6953 23.0469C69.8151 23.1693 69.9062 23.3281 69.9688 23.5234C70.0312 23.7161 70.0625 23.9518 70.0625 24.2305V27H69.3359V24.2227C69.3359 24.0013 69.3034 23.8242 69.2383 23.6914C69.1732 23.556 69.0781 23.4583 68.9531 23.3984C68.8281 23.3359 68.6745 23.3047 68.4922 23.3047C68.3125 23.3047 68.1484 23.3424 68 23.418C67.8542 23.4935 67.7279 23.5977 67.6211 23.7305C67.5169 23.8633 67.4349 24.0156 67.375 24.1875C67.3177 24.3568 67.2891 24.5365 67.2891 24.7266ZM73.6211 25.8789C73.6211 25.7747 73.5977 25.6784 73.5508 25.5898C73.5065 25.4987 73.4141 25.4167 73.2734 25.3438C73.1354 25.2682 72.9271 25.2031 72.6484 25.1484C72.4141 25.099 72.2018 25.0404 72.0117 24.9727C71.8242 24.9049 71.6641 24.8229 71.5312 24.7266C71.401 24.6302 71.3008 24.5169 71.2305 24.3867C71.1602 24.2565 71.125 24.1042 71.125 23.9297C71.125 23.763 71.1615 23.6055 71.2344 23.457C71.3099 23.3086 71.4154 23.1771 71.5508 23.0625C71.6888 22.9479 71.8542 22.8581 72.0469 22.793C72.2396 22.7279 72.4544 22.6953 72.6914 22.6953C73.0299 22.6953 73.319 22.7552 73.5586 22.875C73.7982 22.9948 73.9818 23.1549 74.1094 23.3555C74.237 23.5534 74.3008 23.7734 74.3008 24.0156H73.5781C73.5781 23.8984 73.543 23.7852 73.4727 23.6758C73.4049 23.5638 73.3047 23.4714 73.1719 23.3984C73.0417 23.3255 72.8815 23.2891 72.6914 23.2891C72.4909 23.2891 72.3281 23.3203 72.2031 23.3828C72.0807 23.4427 71.9909 23.5195 71.9336 23.6133C71.8789 23.707 71.8516 23.806 71.8516 23.9102C71.8516 23.9883 71.8646 24.0586 71.8906 24.1211C71.9193 24.181 71.9688 24.237 72.0391 24.2891C72.1094 24.3385 72.2083 24.3854 72.3359 24.4297C72.4635 24.474 72.6263 24.5182 72.8242 24.5625C73.1706 24.6406 73.4557 24.7344 73.6797 24.8438C73.9036 24.9531 74.0703 25.0872 74.1797 25.2461C74.2891 25.4049 74.3438 25.5977 74.3438 25.8242C74.3438 26.0091 74.3047 26.1784 74.2266 26.332C74.151 26.4857 74.0404 26.6185 73.8945 26.7305C73.7513 26.8398 73.5794 26.9258 73.3789 26.9883C73.181 27.0482 72.9583 27.0781 72.7109 27.0781C72.3385 27.0781 72.0234 27.0117 71.7656 26.8789C71.5078 26.7461 71.3125 26.5742 71.1797 26.3633C71.0469 26.1523 70.9805 25.9297 70.9805 25.6953H71.707C71.7174 25.8932 71.7747 26.0508 71.8789 26.168C71.9831 26.2826 72.1107 26.3646 72.2617 26.4141C72.4128 26.4609 72.5625 26.4844 72.7109 26.4844C72.9089 26.4844 73.0742 26.4583 73.207 26.4062C73.3424 26.3542 73.4453 26.2826 73.5156 26.1914C73.5859 26.1003 73.6211 25.9961 73.6211 25.8789ZM76.0156 21V27H75.293V21H76.0156ZM75.8438 24.7266L75.543 24.7148C75.5456 24.4258 75.5885 24.1589 75.6719 23.9141C75.7552 23.6667 75.8724 23.4518 76.0234 23.2695C76.1745 23.0872 76.3542 22.9466 76.5625 22.8477C76.7734 22.7461 77.0065 22.6953 77.2617 22.6953C77.4701 22.6953 77.6576 22.724 77.8242 22.7812C77.9909 22.8359 78.1328 22.9245 78.25 23.0469C78.3698 23.1693 78.4609 23.3281 78.5234 23.5234C78.5859 23.7161 78.6172 23.9518 78.6172 24.2305V27H77.8906V24.2227C77.8906 24.0013 77.8581 23.8242 77.793 23.6914C77.7279 23.556 77.6328 23.4583 77.5078 23.3984C77.3828 23.3359 77.2292 23.3047 77.0469 23.3047C76.8672 23.3047 76.7031 23.3424 76.5547 23.418C76.4089 23.4935 76.2826 23.5977 76.1758 23.7305C76.0716 23.8633 75.9896 24.0156 75.9297 24.1875C75.8724 24.3568 75.8438 24.5365 75.8438 24.7266ZM80.4844 22.7734V27H79.7578V22.7734H80.4844ZM79.7031 21.6523C79.7031 21.5352 79.7383 21.4362 79.8086 21.3555C79.8815 21.2747 79.9883 21.2344 80.1289 21.2344C80.2669 21.2344 80.3724 21.2747 80.4453 21.3555C80.5208 21.4362 80.5586 21.5352 80.5586 21.6523C80.5586 21.7643 80.5208 21.8607 80.4453 21.9414C80.3724 22.0195 80.2669 22.0586 80.1289 22.0586C79.9883 22.0586 79.8815 22.0195 79.8086 21.9414C79.7383 21.8607 79.7031 21.7643 79.7031 21.6523ZM82.3672 23.5859V28.625H81.6406V22.7734H82.3047L82.3672 23.5859ZM85.2148 24.8516V24.9336C85.2148 25.2409 85.1784 25.526 85.1055 25.7891C85.0326 26.0495 84.9258 26.276 84.7852 26.4688C84.6471 26.6615 84.4766 26.8112 84.2734 26.918C84.0703 27.0247 83.8372 27.0781 83.5742 27.0781C83.306 27.0781 83.069 27.0339 82.8633 26.9453C82.6576 26.8568 82.4831 26.7279 82.3398 26.5586C82.1966 26.3893 82.082 26.1862 81.9961 25.9492C81.9128 25.7122 81.8555 25.4453 81.8242 25.1484V24.7109C81.8555 24.3984 81.9141 24.1185 82 23.8711C82.0859 23.6237 82.1992 23.4128 82.3398 23.2383C82.4831 23.0612 82.6562 22.9271 82.8594 22.8359C83.0625 22.7422 83.2969 22.6953 83.5625 22.6953C83.8281 22.6953 84.0638 22.7474 84.2695 22.8516C84.4753 22.9531 84.6484 23.099 84.7891 23.2891C84.9297 23.4792 85.0352 23.707 85.1055 23.9727C85.1784 24.2357 85.2148 24.5286 85.2148 24.8516ZM84.4883 24.9336V24.8516C84.4883 24.6406 84.4661 24.4427 84.4219 24.2578C84.3776 24.0703 84.3086 23.9062 84.2148 23.7656C84.1237 23.6224 84.0065 23.5104 83.8633 23.4297C83.7201 23.3464 83.5495 23.3047 83.3516 23.3047C83.1693 23.3047 83.0104 23.3359 82.875 23.3984C82.7422 23.4609 82.6289 23.5456 82.5352 23.6523C82.4414 23.7565 82.3646 23.8763 82.3047 24.0117C82.2474 24.1445 82.2044 24.2826 82.1758 24.4258V25.4375C82.2279 25.6198 82.3008 25.7917 82.3945 25.9531C82.4883 26.112 82.6133 26.2409 82.7695 26.3398C82.9258 26.4362 83.1224 26.4844 83.3594 26.4844C83.5547 26.4844 83.7227 26.444 83.8633 26.3633C84.0065 26.2799 84.1237 26.1667 84.2148 26.0234C84.3086 25.8802 84.3776 25.7161 84.4219 25.5312C84.4661 25.3438 84.4883 25.1445 84.4883 24.9336ZM91.6641 25.1914H92.4141C92.375 25.5508 92.2721 25.8724 92.1055 26.1562C91.9388 26.4401 91.7031 26.6654 91.3984 26.832C91.0938 26.9961 90.7135 27.0781 90.2578 27.0781C89.9245 27.0781 89.6211 27.0156 89.3477 26.8906C89.0768 26.7656 88.8438 26.5885 88.6484 26.3594C88.4531 26.1276 88.3021 25.8503 88.1953 25.5273C88.0911 25.2018 88.0391 24.8398 88.0391 24.4414V23.875C88.0391 23.4766 88.0911 23.1159 88.1953 22.793C88.3021 22.4674 88.4544 22.1888 88.6523 21.957C88.8529 21.7253 89.0938 21.5469 89.375 21.4219C89.6562 21.2969 89.9727 21.2344 90.3242 21.2344C90.7539 21.2344 91.1172 21.3151 91.4141 21.4766C91.7109 21.638 91.9414 21.862 92.1055 22.1484C92.2721 22.4323 92.375 22.7617 92.4141 23.1367H91.6641C91.6276 22.8711 91.5599 22.6432 91.4609 22.4531C91.362 22.2604 91.2214 22.112 91.0391 22.0078C90.8568 21.9036 90.6185 21.8516 90.3242 21.8516C90.0716 21.8516 89.849 21.8997 89.6562 21.9961C89.4661 22.0924 89.306 22.2292 89.1758 22.4062C89.0482 22.5833 88.9518 22.7956 88.8867 23.043C88.8216 23.2904 88.7891 23.5651 88.7891 23.8672V24.4414C88.7891 24.7201 88.8177 24.9818 88.875 25.2266C88.9349 25.4714 89.0247 25.6862 89.1445 25.8711C89.2643 26.056 89.4167 26.2018 89.6016 26.3086C89.7865 26.4128 90.0052 26.4648 90.2578 26.4648C90.5781 26.4648 90.8333 26.4141 91.0234 26.3125C91.2135 26.2109 91.3568 26.0651 91.4531 25.875C91.5521 25.6849 91.6224 25.457 91.6641 25.1914ZM93.1406 24.9336V24.8438C93.1406 24.5391 93.1849 24.2565 93.2734 23.9961C93.362 23.7331 93.4896 23.5052 93.6562 23.3125C93.8229 23.1172 94.0247 22.9661 94.2617 22.8594C94.4987 22.75 94.7643 22.6953 95.0586 22.6953C95.3555 22.6953 95.6224 22.75 95.8594 22.8594C96.099 22.9661 96.3021 23.1172 96.4688 23.3125C96.638 23.5052 96.7669 23.7331 96.8555 23.9961C96.944 24.2565 96.9883 24.5391 96.9883 24.8438V24.9336C96.9883 25.2383 96.944 25.5208 96.8555 25.7812C96.7669 26.0417 96.638 26.2695 96.4688 26.4648C96.3021 26.6576 96.1003 26.8086 95.8633 26.918C95.6289 27.0247 95.3633 27.0781 95.0664 27.0781C94.7695 27.0781 94.5026 27.0247 94.2656 26.918C94.0286 26.8086 93.8255 26.6576 93.6562 26.4648C93.4896 26.2695 93.362 26.0417 93.2734 25.7812C93.1849 25.5208 93.1406 25.2383 93.1406 24.9336ZM93.8633 24.8438V24.9336C93.8633 25.1445 93.888 25.3438 93.9375 25.5312C93.987 25.7161 94.0612 25.8802 94.1602 26.0234C94.2617 26.1667 94.388 26.2799 94.5391 26.3633C94.6901 26.444 94.8659 26.4844 95.0664 26.4844C95.2643 26.4844 95.4375 26.444 95.5859 26.3633C95.737 26.2799 95.862 26.1667 95.9609 26.0234C96.0599 25.8802 96.1341 25.7161 96.1836 25.5312C96.2357 25.3438 96.2617 25.1445 96.2617 24.9336V24.8438C96.2617 24.6354 96.2357 24.4388 96.1836 24.2539C96.1341 24.0664 96.0586 23.901 95.957 23.7578C95.8581 23.612 95.7331 23.4974 95.582 23.4141C95.4336 23.3307 95.2591 23.2891 95.0586 23.2891C94.8607 23.2891 94.6862 23.3307 94.5352 23.4141C94.3867 23.4974 94.2617 23.612 94.1602 23.7578C94.0612 23.901 93.987 24.0664 93.9375 24.2539C93.888 24.4388 93.8633 24.6354 93.8633 24.8438ZM98.6133 23.6133V27H97.8867V22.7734H98.5742L98.6133 23.6133ZM98.4648 24.7266L98.1289 24.7148C98.1315 24.4258 98.1693 24.1589 98.2422 23.9141C98.3151 23.6667 98.4232 23.4518 98.5664 23.2695C98.7096 23.0872 98.888 22.9466 99.1016 22.8477C99.3151 22.7461 99.5625 22.6953 99.8438 22.6953C100.042 22.6953 100.224 22.724 100.391 22.7812C100.557 22.8359 100.702 22.9232 100.824 23.043C100.947 23.1628 101.042 23.3164 101.109 23.5039C101.177 23.6914 101.211 23.918 101.211 24.1836V27H100.488V24.2188C100.488 23.9974 100.451 23.8203 100.375 23.6875C100.302 23.5547 100.198 23.4583 100.062 23.3984C99.9271 23.3359 99.7682 23.3047 99.5859 23.3047C99.3724 23.3047 99.194 23.3424 99.0508 23.418C98.9076 23.4935 98.793 23.5977 98.707 23.7305C98.6211 23.8633 98.5586 24.0156 98.5195 24.1875C98.4831 24.3568 98.4648 24.5365 98.4648 24.7266ZM101.203 24.3281L100.719 24.4766C100.721 24.2448 100.759 24.0221 100.832 23.8086C100.908 23.5951 101.016 23.4049 101.156 23.2383C101.299 23.0716 101.475 22.9401 101.684 22.8438C101.892 22.7448 102.13 22.6953 102.398 22.6953C102.625 22.6953 102.826 22.7253 103 22.7852C103.177 22.8451 103.326 22.9375 103.445 23.0625C103.568 23.1849 103.66 23.3424 103.723 23.5352C103.785 23.7279 103.816 23.957 103.816 24.2227V27H103.09V24.2148C103.09 23.9779 103.052 23.7943 102.977 23.6641C102.904 23.5312 102.799 23.4388 102.664 23.3867C102.531 23.332 102.372 23.3047 102.188 23.3047C102.029 23.3047 101.888 23.332 101.766 23.3867C101.643 23.4414 101.54 23.5169 101.457 23.6133C101.374 23.707 101.31 23.8151 101.266 23.9375C101.224 24.0599 101.203 24.1901 101.203 24.3281ZM105.633 23.5859V28.625H104.906V22.7734H105.57L105.633 23.5859ZM108.48 24.8516V24.9336C108.48 25.2409 108.444 25.526 108.371 25.7891C108.298 26.0495 108.191 26.276 108.051 26.4688C107.913 26.6615 107.742 26.8112 107.539 26.918C107.336 27.0247 107.103 27.0781 106.84 27.0781C106.572 27.0781 106.335 27.0339 106.129 26.9453C105.923 26.8568 105.749 26.7279 105.605 26.5586C105.462 26.3893 105.348 26.1862 105.262 25.9492C105.178 25.7122 105.121 25.4453 105.09 25.1484V24.7109C105.121 24.3984 105.18 24.1185 105.266 23.8711C105.352 23.6237 105.465 23.4128 105.605 23.2383C105.749 23.0612 105.922 22.9271 106.125 22.8359C106.328 22.7422 106.562 22.6953 106.828 22.6953C107.094 22.6953 107.329 22.7474 107.535 22.8516C107.741 22.9531 107.914 23.099 108.055 23.2891C108.195 23.4792 108.301 23.707 108.371 23.9727C108.444 24.2357 108.48 24.5286 108.48 24.8516ZM107.754 24.9336V24.8516C107.754 24.6406 107.732 24.4427 107.688 24.2578C107.643 24.0703 107.574 23.9062 107.48 23.7656C107.389 23.6224 107.272 23.5104 107.129 23.4297C106.986 23.3464 106.815 23.3047 106.617 23.3047C106.435 23.3047 106.276 23.3359 106.141 23.3984C106.008 23.4609 105.895 23.5456 105.801 23.6523C105.707 23.7565 105.63 23.8763 105.57 24.0117C105.513 24.1445 105.47 24.2826 105.441 24.4258V25.4375C105.493 25.6198 105.566 25.7917 105.66 25.9531C105.754 26.112 105.879 26.2409 106.035 26.3398C106.191 26.4362 106.388 26.4844 106.625 26.4844C106.82 26.4844 106.988 26.444 107.129 26.3633C107.272 26.2799 107.389 26.1667 107.48 26.0234C107.574 25.8802 107.643 25.7161 107.688 25.5312C107.732 25.3438 107.754 25.1445 107.754 24.9336ZM111.156 27.0781C110.862 27.0781 110.595 27.0286 110.355 26.9297C110.118 26.8281 109.914 26.6862 109.742 26.5039C109.573 26.3216 109.443 26.1055 109.352 25.8555C109.26 25.6055 109.215 25.332 109.215 25.0352V24.8711C109.215 24.5273 109.266 24.2214 109.367 23.9531C109.469 23.6823 109.607 23.4531 109.781 23.2656C109.956 23.0781 110.154 22.9362 110.375 22.8398C110.596 22.7435 110.826 22.6953 111.062 22.6953C111.365 22.6953 111.625 22.7474 111.844 22.8516C112.065 22.9557 112.246 23.1016 112.387 23.2891C112.527 23.474 112.632 23.6927 112.699 23.9453C112.767 24.1953 112.801 24.4688 112.801 24.7656V25.0898H109.645V24.5H112.078V24.4453C112.068 24.2578 112.029 24.0755 111.961 23.8984C111.896 23.7214 111.792 23.5755 111.648 23.4609C111.505 23.3464 111.31 23.2891 111.062 23.2891C110.898 23.2891 110.747 23.3242 110.609 23.3945C110.471 23.4622 110.353 23.5638 110.254 23.6992C110.155 23.8346 110.078 24 110.023 24.1953C109.969 24.3906 109.941 24.6159 109.941 24.8711V25.0352C109.941 25.2357 109.969 25.4245 110.023 25.6016C110.081 25.776 110.163 25.9297 110.27 26.0625C110.379 26.1953 110.51 26.2995 110.664 26.375C110.82 26.4505 110.997 26.4883 111.195 26.4883C111.451 26.4883 111.667 26.4362 111.844 26.332C112.021 26.2279 112.176 26.0885 112.309 25.9141L112.746 26.2617C112.655 26.3997 112.539 26.5312 112.398 26.6562C112.258 26.7812 112.085 26.8828 111.879 26.9609C111.676 27.0391 111.435 27.0781 111.156 27.0781ZM115.414 22.7734V23.3281H113.129V22.7734H115.414ZM113.902 21.7461H114.625V25.9531C114.625 26.0964 114.647 26.2044 114.691 26.2773C114.736 26.3503 114.793 26.3984 114.863 26.4219C114.934 26.4453 115.009 26.457 115.09 26.457C115.15 26.457 115.212 26.4518 115.277 26.4414C115.345 26.4284 115.396 26.418 115.43 26.4102L115.434 27C115.376 27.0182 115.301 27.0352 115.207 27.0508C115.116 27.069 115.005 27.0781 114.875 27.0781C114.698 27.0781 114.535 27.043 114.387 26.9727C114.238 26.9023 114.12 26.7852 114.031 26.6211C113.945 26.4544 113.902 26.2305 113.902 25.9492V21.7461ZM118.016 27.0781C117.721 27.0781 117.454 27.0286 117.215 26.9297C116.978 26.8281 116.773 26.6862 116.602 26.5039C116.432 26.3216 116.302 26.1055 116.211 25.8555C116.12 25.6055 116.074 25.332 116.074 25.0352V24.8711C116.074 24.5273 116.125 24.2214 116.227 23.9531C116.328 23.6823 116.466 23.4531 116.641 23.2656C116.815 23.0781 117.013 22.9362 117.234 22.8398C117.456 22.7435 117.685 22.6953 117.922 22.6953C118.224 22.6953 118.484 22.7474 118.703 22.8516C118.924 22.9557 119.105 23.1016 119.246 23.2891C119.387 23.474 119.491 23.6927 119.559 23.9453C119.626 24.1953 119.66 24.4688 119.66 24.7656V25.0898H116.504V24.5H118.938V24.4453C118.927 24.2578 118.888 24.0755 118.82 23.8984C118.755 23.7214 118.651 23.5755 118.508 23.4609C118.365 23.3464 118.169 23.2891 117.922 23.2891C117.758 23.2891 117.607 23.3242 117.469 23.3945C117.331 23.4622 117.212 23.5638 117.113 23.6992C117.014 23.8346 116.938 24 116.883 24.1953C116.828 24.3906 116.801 24.6159 116.801 24.8711V25.0352C116.801 25.2357 116.828 25.4245 116.883 25.6016C116.94 25.776 117.022 25.9297 117.129 26.0625C117.238 26.1953 117.37 26.2995 117.523 26.375C117.68 26.4505 117.857 26.4883 118.055 26.4883C118.31 26.4883 118.526 26.4362 118.703 26.332C118.88 26.2279 119.035 26.0885 119.168 25.9141L119.605 26.2617C119.514 26.3997 119.398 26.5312 119.258 26.6562C119.117 26.7812 118.944 26.8828 118.738 26.9609C118.535 27.0391 118.294 27.0781 118.016 27.0781ZM121.227 23.6758V27H120.504V22.7734H121.188L121.227 23.6758ZM121.055 24.7266L120.754 24.7148C120.757 24.4258 120.799 24.1589 120.883 23.9141C120.966 23.6667 121.083 23.4518 121.234 23.2695C121.385 23.0872 121.565 22.9466 121.773 22.8477C121.984 22.7461 122.217 22.6953 122.473 22.6953C122.681 22.6953 122.868 22.724 123.035 22.7812C123.202 22.8359 123.344 22.9245 123.461 23.0469C123.581 23.1693 123.672 23.3281 123.734 23.5234C123.797 23.7161 123.828 23.9518 123.828 24.2305V27H123.102V24.2227C123.102 24.0013 123.069 23.8242 123.004 23.6914C122.939 23.556 122.844 23.4583 122.719 23.3984C122.594 23.3359 122.44 23.3047 122.258 23.3047C122.078 23.3047 121.914 23.3424 121.766 23.418C121.62 23.4935 121.493 23.5977 121.387 23.7305C121.283 23.8633 121.201 24.0156 121.141 24.1875C121.083 24.3568 121.055 24.5365 121.055 24.7266ZM126.617 26.4844C126.789 26.4844 126.948 26.4492 127.094 26.3789C127.24 26.3086 127.359 26.2122 127.453 26.0898C127.547 25.9648 127.6 25.8229 127.613 25.6641H128.301C128.288 25.9141 128.203 26.1471 128.047 26.3633C127.893 26.5768 127.691 26.75 127.441 26.8828C127.191 27.013 126.917 27.0781 126.617 27.0781C126.299 27.0781 126.022 27.0221 125.785 26.9102C125.551 26.7982 125.355 26.6445 125.199 26.4492C125.046 26.2539 124.93 26.0299 124.852 25.7773C124.776 25.5221 124.738 25.2526 124.738 24.9688V24.8047C124.738 24.5208 124.776 24.2526 124.852 24C124.93 23.7448 125.046 23.5195 125.199 23.3242C125.355 23.1289 125.551 22.9753 125.785 22.8633C126.022 22.7513 126.299 22.6953 126.617 22.6953C126.948 22.6953 127.237 22.763 127.484 22.8984C127.732 23.0312 127.926 23.2135 128.066 23.4453C128.21 23.6745 128.288 23.9349 128.301 24.2266H127.613C127.6 24.0521 127.551 23.8945 127.465 23.7539C127.382 23.6133 127.267 23.5013 127.121 23.418C126.978 23.332 126.81 23.2891 126.617 23.2891C126.396 23.2891 126.21 23.3333 126.059 23.4219C125.91 23.5078 125.792 23.625 125.703 23.7734C125.617 23.9193 125.555 24.082 125.516 24.2617C125.479 24.4388 125.461 24.6198 125.461 24.8047V24.9688C125.461 25.1536 125.479 25.3359 125.516 25.5156C125.552 25.6953 125.613 25.8581 125.699 26.0039C125.788 26.1497 125.906 26.2669 126.055 26.3555C126.206 26.4414 126.393 26.4844 126.617 26.4844ZM130.301 26.5625L131.477 22.7734H132.25L130.555 27.6523C130.516 27.7565 130.464 27.8685 130.398 27.9883C130.336 28.1107 130.255 28.2266 130.156 28.3359C130.057 28.4453 129.938 28.5339 129.797 28.6016C129.659 28.6719 129.493 28.707 129.301 28.707C129.243 28.707 129.171 28.6992 129.082 28.6836C128.993 28.668 128.931 28.6549 128.895 28.6445L128.891 28.0586C128.911 28.0612 128.944 28.0638 128.988 28.0664C129.035 28.0716 129.068 28.0742 129.086 28.0742C129.25 28.0742 129.389 28.0521 129.504 28.0078C129.618 27.9661 129.715 27.8945 129.793 27.793C129.874 27.694 129.943 27.5573 130 27.3828L130.301 26.5625ZM129.438 22.7734L130.535 26.0547L130.723 26.8164L130.203 27.082L128.648 22.7734H129.438ZM138.43 25.1914H139.18C139.141 25.5508 139.038 25.8724 138.871 26.1562C138.704 26.4401 138.469 26.6654 138.164 26.832C137.859 26.9961 137.479 27.0781 137.023 27.0781C136.69 27.0781 136.387 27.0156 136.113 26.8906C135.842 26.7656 135.609 26.5885 135.414 26.3594C135.219 26.1276 135.068 25.8503 134.961 25.5273C134.857 25.2018 134.805 24.8398 134.805 24.4414V23.875C134.805 23.4766 134.857 23.1159 134.961 22.793C135.068 22.4674 135.22 22.1888 135.418 21.957C135.618 21.7253 135.859 21.5469 136.141 21.4219C136.422 21.2969 136.738 21.2344 137.09 21.2344C137.52 21.2344 137.883 21.3151 138.18 21.4766C138.477 21.638 138.707 21.862 138.871 22.1484C139.038 22.4323 139.141 22.7617 139.18 23.1367H138.43C138.393 22.8711 138.326 22.6432 138.227 22.4531C138.128 22.2604 137.987 22.112 137.805 22.0078C137.622 21.9036 137.384 21.8516 137.09 21.8516C136.837 21.8516 136.615 21.8997 136.422 21.9961C136.232 22.0924 136.072 22.2292 135.941 22.4062C135.814 22.5833 135.717 22.7956 135.652 23.043C135.587 23.2904 135.555 23.5651 135.555 23.8672V24.4414C135.555 24.7201 135.583 24.9818 135.641 25.2266C135.701 25.4714 135.79 25.6862 135.91 25.8711C136.03 26.056 136.182 26.2018 136.367 26.3086C136.552 26.4128 136.771 26.4648 137.023 26.4648C137.344 26.4648 137.599 26.4141 137.789 26.3125C137.979 26.2109 138.122 26.0651 138.219 25.875C138.318 25.6849 138.388 25.457 138.43 25.1914ZM141.852 27.0781C141.557 27.0781 141.29 27.0286 141.051 26.9297C140.814 26.8281 140.609 26.6862 140.438 26.5039C140.268 26.3216 140.138 26.1055 140.047 25.8555C139.956 25.6055 139.91 25.332 139.91 25.0352V24.8711C139.91 24.5273 139.961 24.2214 140.062 23.9531C140.164 23.6823 140.302 23.4531 140.477 23.2656C140.651 23.0781 140.849 22.9362 141.07 22.8398C141.292 22.7435 141.521 22.6953 141.758 22.6953C142.06 22.6953 142.32 22.7474 142.539 22.8516C142.76 22.9557 142.941 23.1016 143.082 23.2891C143.223 23.474 143.327 23.6927 143.395 23.9453C143.462 24.1953 143.496 24.4688 143.496 24.7656V25.0898H140.34V24.5H142.773V24.4453C142.763 24.2578 142.724 24.0755 142.656 23.8984C142.591 23.7214 142.487 23.5755 142.344 23.4609C142.201 23.3464 142.005 23.2891 141.758 23.2891C141.594 23.2891 141.443 23.3242 141.305 23.3945C141.167 23.4622 141.048 23.5638 140.949 23.6992C140.85 23.8346 140.773 24 140.719 24.1953C140.664 24.3906 140.637 24.6159 140.637 24.8711V25.0352C140.637 25.2357 140.664 25.4245 140.719 25.6016C140.776 25.776 140.858 25.9297 140.965 26.0625C141.074 26.1953 141.206 26.2995 141.359 26.375C141.516 26.4505 141.693 26.4883 141.891 26.4883C142.146 26.4883 142.362 26.4362 142.539 26.332C142.716 26.2279 142.871 26.0885 143.004 25.9141L143.441 26.2617C143.35 26.3997 143.234 26.5312 143.094 26.6562C142.953 26.7812 142.78 26.8828 142.574 26.9609C142.371 27.0391 142.13 27.0781 141.852 27.0781ZM145.062 23.6758V27H144.34V22.7734H145.023L145.062 23.6758ZM144.891 24.7266L144.59 24.7148C144.592 24.4258 144.635 24.1589 144.719 23.9141C144.802 23.6667 144.919 23.4518 145.07 23.2695C145.221 23.0872 145.401 22.9466 145.609 22.8477C145.82 22.7461 146.053 22.6953 146.309 22.6953C146.517 22.6953 146.704 22.724 146.871 22.7812C147.038 22.8359 147.18 22.9245 147.297 23.0469C147.417 23.1693 147.508 23.3281 147.57 23.5234C147.633 23.7161 147.664 23.9518 147.664 24.2305V27H146.938V24.2227C146.938 24.0013 146.905 23.8242 146.84 23.6914C146.775 23.556 146.68 23.4583 146.555 23.3984C146.43 23.3359 146.276 23.3047 146.094 23.3047C145.914 23.3047 145.75 23.3424 145.602 23.418C145.456 23.4935 145.329 23.5977 145.223 23.7305C145.118 23.8633 145.036 24.0156 144.977 24.1875C144.919 24.3568 144.891 24.5365 144.891 24.7266ZM150.531 22.7734V23.3281H148.246V22.7734H150.531ZM149.02 21.7461H149.742V25.9531C149.742 26.0964 149.764 26.2044 149.809 26.2773C149.853 26.3503 149.91 26.3984 149.98 26.4219C150.051 26.4453 150.126 26.457 150.207 26.457C150.267 26.457 150.329 26.4518 150.395 26.4414C150.462 26.4284 150.513 26.418 150.547 26.4102L150.551 27C150.493 27.0182 150.418 27.0352 150.324 27.0508C150.233 27.069 150.122 27.0781 149.992 27.0781C149.815 27.0781 149.652 27.043 149.504 26.9727C149.355 26.9023 149.237 26.7852 149.148 26.6211C149.062 26.4544 149.02 26.2305 149.02 25.9492V21.7461ZM153.133 27.0781C152.839 27.0781 152.572 27.0286 152.332 26.9297C152.095 26.8281 151.891 26.6862 151.719 26.5039C151.549 26.3216 151.419 26.1055 151.328 25.8555C151.237 25.6055 151.191 25.332 151.191 25.0352V24.8711C151.191 24.5273 151.242 24.2214 151.344 23.9531C151.445 23.6823 151.583 23.4531 151.758 23.2656C151.932 23.0781 152.13 22.9362 152.352 22.8398C152.573 22.7435 152.802 22.6953 153.039 22.6953C153.341 22.6953 153.602 22.7474 153.82 22.8516C154.042 22.9557 154.223 23.1016 154.363 23.2891C154.504 23.474 154.608 23.6927 154.676 23.9453C154.743 24.1953 154.777 24.4688 154.777 24.7656V25.0898H151.621V24.5H154.055V24.4453C154.044 24.2578 154.005 24.0755 153.938 23.8984C153.872 23.7214 153.768 23.5755 153.625 23.4609C153.482 23.3464 153.286 23.2891 153.039 23.2891C152.875 23.2891 152.724 23.3242 152.586 23.3945C152.448 23.4622 152.329 23.5638 152.23 23.6992C152.132 23.8346 152.055 24 152 24.1953C151.945 24.3906 151.918 24.6159 151.918 24.8711V25.0352C151.918 25.2357 151.945 25.4245 152 25.6016C152.057 25.776 152.139 25.9297 152.246 26.0625C152.355 26.1953 152.487 26.2995 152.641 26.375C152.797 26.4505 152.974 26.4883 153.172 26.4883C153.427 26.4883 153.643 26.4362 153.82 26.332C153.997 26.2279 154.152 26.0885 154.285 25.9141L154.723 26.2617C154.632 26.3997 154.516 26.5312 154.375 26.6562C154.234 26.7812 154.061 26.8828 153.855 26.9609C153.652 27.0391 153.411 27.0781 153.133 27.0781ZM156.344 23.4375V27H155.621V22.7734H156.324L156.344 23.4375ZM157.664 22.75L157.66 23.4219C157.6 23.4089 157.543 23.401 157.488 23.3984C157.436 23.3932 157.376 23.3906 157.309 23.3906C157.142 23.3906 156.995 23.4167 156.867 23.4688C156.74 23.5208 156.632 23.5938 156.543 23.6875C156.454 23.7812 156.384 23.8932 156.332 24.0234C156.283 24.151 156.25 24.2917 156.234 24.4453L156.031 24.5625C156.031 24.3073 156.056 24.0677 156.105 23.8438C156.158 23.6198 156.237 23.4219 156.344 23.25C156.451 23.0755 156.586 22.9401 156.75 22.8438C156.917 22.7448 157.115 22.6953 157.344 22.6953C157.396 22.6953 157.456 22.7018 157.523 22.7148C157.591 22.7253 157.638 22.737 157.664 22.75Z" fill="white"/>
</g>
<defs>
<clipPath id="clip0_371_206">
<rect width="158" height="28" fill="white"/>
</clipPath>
</defs>
</svg>
