<svg width="400" height="400" viewBox="0 0 400 400" fill="none" xmlns="http://www.w3.org/2000/svg">
<g clip-path="url(#clip0_29_118)">
<path d="M376.324 110.401C372.579 103.45 368.424 96.7417 363.883 90.313C360.7 85.8027 357.338 81.443 353.795 77.2338H353.786C347.376 69.6138 340.404 62.5135 332.933 55.996C331.404 54.6598 329.854 53.351 328.284 52.0695C314.108 40.4658 298.388 31.0144 281.604 24.0042L281.753 49.2404L283.359 336.92H144.155L136.326 49.7832L136.91 24.95C68.6625 54.4839 20.7428 123.924 20.7428 204.884C20.7301 221.594 22.8021 238.237 26.9079 254.405C28.6422 261.239 30.7418 267.97 33.1971 274.566C34.0836 276.961 35.0187 279.334 36.0026 281.685C36.4769 282.83 36.96 283.965 37.4608 285.096C38.1035 286.574 38.7727 288.047 39.4597 289.502C39.9915 290.646 40.5382 291.783 41.0996 292.913C41.822 294.395 42.5681 295.865 43.3378 297.323C43.9317 298.467 44.5434 299.603 45.1639 300.734C55.1745 318.953 67.9577 335.404 83.0275 349.462C87.3223 353.47 91.7913 357.271 96.4347 360.863C129.29 386.265 169.275 400 210.371 400C251.468 400 291.453 386.265 324.308 360.863C326.834 358.911 329.309 356.894 331.732 354.811C333.341 353.434 334.923 352.031 336.479 350.602C336.891 350.223 337.303 349.845 337.711 349.462C351.604 336.502 363.561 321.503 373.194 304.948C376.732 298.878 379.94 292.612 382.803 286.177C383.561 284.481 384.295 282.769 385.006 281.042C388.277 273.125 391.028 264.991 393.241 256.694C393.582 255.413 393.912 254.127 394.229 252.836V252.832C394.283 252.608 394.34 252.38 394.393 252.157C394.721 250.798 395.036 249.43 395.337 248.061V248.057C396.312 243.647 397.135 239.184 397.806 234.668C397.89 234.088 397.974 233.509 398.054 232.93C398.085 232.72 398.116 232.511 398.138 232.301V232.296C398.617 228.808 399.006 225.293 399.304 221.753C399.765 216.193 399.997 210.571 400 204.884C400.05 171.83 391.901 139.309 376.324 110.401Z" fill="#F2F2F2"/>
<path d="M357.701 322.664C368.925 307.06 373.241 285.08 364.51 267.871C356.322 287.228 341.744 302.981 323.354 312.343C316.249 315.927 307.984 319.153 304.695 326.558C302.649 331.166 303.039 336.607 304.684 341.381C306.329 346.156 309.127 350.405 311.895 354.594L312.041 355.85C329.469 348.415 346.477 338.269 357.701 322.664Z" fill="#E6E6E6"/>
<path d="M364.138 268.009C363.635 284.069 358.227 299.558 348.682 312.276C346.674 315.051 344.254 317.483 341.51 319.483C338.776 321.343 335.608 322.415 332.335 322.588C329.287 322.813 326.143 322.679 323.201 323.663C321.702 324.189 320.328 325.036 319.17 326.147C318.011 327.257 317.094 328.608 316.478 330.109C314.849 333.809 314.609 337.89 314.509 341.89C314.399 346.331 314.352 350.945 312.316 354.982C312.07 355.471 312.822 355.836 313.068 355.348C316.61 348.324 314.31 340.111 316.421 332.728C317.406 329.283 319.405 326.122 322.748 324.741C325.671 323.534 328.913 323.669 332.001 323.468C335.197 323.347 338.314 322.423 341.082 320.777C343.916 318.927 346.424 316.595 348.497 313.879C353.26 307.843 357.07 301.074 359.789 293.82C362.937 285.558 364.688 276.803 364.967 267.934C364.984 267.385 364.155 267.463 364.138 268.009Z" fill="white"/>
<path d="M351.989 308.367C354.28 309.725 356.966 310.201 359.567 309.71C362.168 309.218 364.514 307.792 366.187 305.685C366.524 305.258 365.894 304.699 365.557 305.127C364.002 307.092 361.817 308.42 359.394 308.872C356.971 309.325 354.471 308.871 352.345 307.593C351.883 307.316 351.53 308.091 351.989 308.367Z" fill="white"/>
<path d="M333.895 322.683C332.445 317.326 333.01 311.602 335.479 306.655C335.724 306.165 334.972 305.799 334.727 306.289C332.168 311.442 331.591 317.4 333.112 322.972C333.258 323.503 334.04 323.211 333.895 322.683Z" fill="white"/>
<path d="M361.835 285.598C360.842 285.262 359.946 284.678 359.226 283.898C358.507 283.118 357.987 282.167 357.713 281.129C357.575 280.596 356.793 280.888 356.931 281.417C357.238 282.562 357.813 283.612 358.606 284.476C359.399 285.34 360.386 285.99 361.479 286.371C361.58 286.416 361.693 286.42 361.795 286.382C361.898 286.344 361.983 286.267 362.033 286.167C362.08 286.065 362.085 285.947 362.048 285.841C362.011 285.734 361.934 285.647 361.835 285.598Z" fill="white"/>
<path d="M302.032 254.175C302.109 254.51 302.187 254.845 302.26 255.186C303.278 259.697 303.939 264.285 304.235 268.906C304.263 269.263 304.287 269.625 304.305 269.982C304.904 281.123 303.487 292.281 300.126 302.889C298.785 307.109 297.134 311.218 295.187 315.181C292.498 320.653 289.16 326.366 288.407 332.259C288.322 332.873 288.273 333.491 288.263 334.111L310.541 355.936C310.616 355.959 310.686 355.988 310.761 356.012L311.612 356.925C311.726 356.728 311.84 356.521 311.955 356.324C312.021 356.21 312.083 356.091 312.15 355.977C312.193 355.899 312.236 355.821 312.279 355.754C312.293 355.728 312.307 355.702 312.317 355.681C312.36 355.614 312.393 355.547 312.431 355.484C313.074 354.329 313.709 353.167 314.338 351.999C314.343 351.993 314.343 351.993 314.343 351.983C319.114 343.067 323.204 333.663 325.776 323.919C325.853 323.626 325.936 323.327 326.003 323.024C327.139 318.625 327.923 314.139 328.348 309.608C328.574 307.127 328.676 304.635 328.657 302.143C328.594 295.704 327.547 289.315 325.554 283.211C321.581 271.042 313.869 260.317 302.876 254.603C302.595 254.457 302.318 254.316 302.032 254.175Z" fill="#E6E6E6"/>
<path d="M301.813 254.515C310.809 267.65 315.554 283.367 315.374 299.435C315.395 302.895 314.885 306.336 313.865 309.633C312.77 312.811 310.868 315.629 308.356 317.795C306.054 319.863 303.466 321.704 301.692 324.312C300.803 325.661 300.201 327.188 299.926 328.793C299.651 330.397 299.709 332.044 300.096 333.624C300.96 337.587 303.157 340.994 305.417 344.25C307.927 347.864 310.59 351.577 311.327 356.062C311.416 356.605 312.23 356.431 312.141 355.888C310.86 348.086 304.217 342.953 301.582 335.75C300.353 332.389 300.1 328.627 301.961 325.454C303.589 322.679 306.256 320.778 308.605 318.705C311.085 316.629 313.034 313.96 314.28 310.93C315.461 307.698 316.098 304.282 316.165 300.83C316.435 293.06 315.517 285.294 313.443 277.818C311.122 269.271 307.398 261.197 302.431 253.942C302.123 253.494 301.507 254.069 301.813 254.515Z" fill="white"/>
<path d="M315.728 294.265C318.352 293.93 320.775 292.646 322.564 290.643C324.353 288.639 325.392 286.047 325.494 283.328C325.513 282.778 324.684 282.722 324.665 283.273C324.573 285.805 323.605 288.219 321.936 290.081C320.266 291.943 318.004 293.13 315.559 293.427C315.028 293.492 315.199 294.33 315.728 294.265Z" fill="white"/>
<path d="M309.658 316.905C305.365 313.526 302.467 308.606 301.543 303.126C301.452 302.583 300.638 302.757 300.729 303.299C301.701 309 304.726 314.114 309.201 317.62C309.628 317.954 310.082 317.237 309.658 316.905Z" fill="white"/>
<path d="M310.266 269.986C309.277 270.333 308.219 270.422 307.189 270.245C306.158 270.068 305.186 269.63 304.36 268.971C303.938 268.631 303.484 269.349 303.904 269.686C304.819 270.41 305.893 270.892 307.032 271.09C308.17 271.289 309.338 271.197 310.434 270.823C310.541 270.797 310.633 270.73 310.693 270.636C310.753 270.542 310.776 270.429 310.757 270.318C310.734 270.207 310.67 270.11 310.578 270.048C310.486 269.986 310.374 269.963 310.266 269.986Z" fill="white"/>
<path d="M8.85258 235.268C-1.10176 218.776 -3.66805 196.508 6.39317 180.086C13.0254 200.064 26.3116 216.984 43.9011 227.853C50.6994 232.019 58.6823 235.925 61.3752 243.581C63.0508 248.344 62.2327 253.735 60.2161 258.356C58.1992 262.978 55.075 266.978 51.9849 270.922L51.7404 272.162C34.9567 263.294 18.8069 251.759 8.85258 235.268Z" fill="#E6E6E6"/>
<path d="M6.75347 180.254C5.98623 196.304 10.1532 212.194 18.6626 225.667C20.4444 228.601 22.6646 231.228 25.2413 233.451C27.8194 235.533 30.8923 236.866 34.1406 237.312C37.1612 237.791 40.3048 237.921 43.1597 239.148C44.612 239.797 45.9143 240.756 46.9813 241.96C48.0484 243.164 48.8559 244.587 49.3511 246.135C50.6825 249.958 50.5992 254.046 50.3827 258.041C50.1424 262.476 49.8244 267.079 51.5346 271.273C51.7418 271.781 50.9634 272.082 50.7565 271.575C47.7811 264.279 50.7221 256.285 49.2015 248.749C48.4919 245.233 46.7483 241.916 43.5257 240.26C40.7076 238.813 37.466 238.676 34.4035 238.218C31.2285 237.83 28.194 236.648 25.5652 234.776C22.8868 232.695 20.572 230.161 18.7199 227.281C14.4498 220.867 11.1865 213.801 9.04946 206.344C6.56461 197.846 5.51079 188.974 5.93357 180.111C5.95996 179.562 6.77969 179.709 6.75347 180.254Z" fill="white"/>
<path d="M15.6744 221.495C13.2836 222.657 10.5691 222.907 8.01581 222.2C5.4625 221.493 3.23659 219.875 1.73561 217.635C1.43341 217.181 2.10529 216.676 2.40789 217.131C3.80186 219.219 5.87545 220.726 8.2544 221.38C10.6334 222.033 13.161 221.79 15.381 220.694C15.8637 220.457 16.1544 221.259 15.6744 221.495Z" fill="white"/>
<path d="M32.5779 237.277C34.4467 232.059 34.3352 226.307 32.2655 221.169C32.0601 220.66 32.8384 220.359 33.0436 220.867C35.1876 226.218 35.2919 232.204 33.3356 237.63C33.1488 238.147 32.3922 237.792 32.5779 237.277Z" fill="white"/>
<path d="M7.65975 197.978C8.67587 197.727 9.61543 197.22 10.394 196.502C11.1726 195.785 11.7659 194.88 12.1206 193.869C12.3009 193.349 13.0574 193.705 12.8782 194.221C12.4813 195.337 11.8249 196.335 10.9664 197.13C10.1079 197.924 9.07331 198.49 7.95314 198.779C7.84976 198.815 7.73685 198.809 7.63734 198.763C7.53783 198.717 7.45919 198.633 7.41741 198.529C7.37908 198.423 7.38303 198.305 7.42841 198.202C7.47379 198.099 7.55692 198.018 7.65975 197.978Z" fill="white"/>
<path d="M69.7469 171.66C69.6432 171.987 69.5396 172.315 69.4401 172.648C68.0687 177.059 67.0479 181.577 66.3877 186.158C66.3312 186.511 66.2791 186.87 66.2326 187.225C64.7563 198.278 65.2873 209.518 67.7987 220.373C68.8019 224.691 70.1229 228.924 71.7504 233.036C73.9982 238.715 76.8746 244.688 77.1596 250.625C77.1961 251.244 77.1952 251.864 77.1571 252.483L53.2289 272.373C53.1525 272.39 53.0802 272.413 53.0035 272.43L52.0834 273.269C51.9851 273.063 51.8874 272.847 51.7891 272.641C51.7315 272.522 51.6793 272.398 51.6218 272.279C51.5852 272.198 51.5487 272.117 51.5112 272.046C51.4989 272.019 51.4868 271.992 51.4789 271.97C51.4413 271.9 51.4137 271.83 51.3806 271.764C50.8313 270.559 50.2894 269.348 49.7547 268.131C49.7503 268.125 49.7503 268.125 49.7512 268.115C45.7002 258.83 42.367 249.114 40.5728 239.187C40.5189 238.889 40.4604 238.585 40.4174 238.277C39.6328 233.798 39.2054 229.26 39.1392 224.709C39.1108 222.217 39.2051 219.725 39.4215 217.243C39.9929 210.83 41.5409 204.55 44.009 198.633C48.9307 186.837 57.4641 176.792 68.8718 172.016C69.1637 171.894 69.4505 171.776 69.7469 171.66Z" fill="#E6E6E6"/>
<path d="M69.9384 172.017C59.9348 184.356 53.9641 199.625 52.8744 215.654C52.5803 219.101 52.8159 222.574 53.5728 225.945C54.4131 229.204 56.0864 232.172 58.4188 234.541C60.5503 236.795 62.9842 238.846 64.5462 241.593C65.3255 243.012 65.8045 244.584 65.9519 246.207C66.0992 247.829 65.9116 249.465 65.4013 251.008C64.227 254.886 61.7685 258.098 59.2582 261.153C56.471 264.546 53.5238 268.024 52.4353 272.432C52.3035 272.966 51.5058 272.724 51.6375 272.191C53.5311 264.522 60.5567 259.961 63.7519 253.003C65.2428 249.756 65.7917 246.027 64.1874 242.709C62.7844 239.807 60.2763 237.689 58.0989 235.427C55.7907 233.15 54.0594 230.327 53.0562 227.203C52.135 223.883 51.7697 220.425 51.9759 216.979C52.3198 209.212 53.8485 201.549 56.5059 194.27C59.494 185.946 63.844 178.209 69.3677 171.395C69.7097 170.973 70.2782 171.598 69.9384 172.017Z" fill="white"/>
<path d="M52.93 210.472C50.3411 209.918 48.0276 208.436 46.4026 206.29C44.7777 204.144 43.9471 201.473 44.0593 198.755C44.0648 198.644 44.112 198.54 44.1908 198.464C44.2696 198.388 44.3739 198.347 44.4817 198.349C44.5895 198.351 44.6925 198.395 44.7688 198.474C44.8451 198.552 44.8889 198.658 44.8909 198.769C44.7819 201.3 45.5558 203.788 47.0729 205.783C48.5901 207.779 50.7505 209.15 53.1642 209.651C53.6886 209.76 53.4514 210.58 52.93 210.472Z" fill="white"/>
<path d="M57.1917 233.545C61.7374 230.536 65.0139 225.874 66.3677 220.49C66.5014 219.956 67.2992 220.198 67.1656 220.731C65.7466 226.331 62.3274 231.175 57.5903 234.296C57.1386 234.593 56.7424 233.84 57.1917 233.545Z" fill="white"/>
<path d="M60.2914 186.73C61.2497 187.159 62.2966 187.336 63.338 187.245C64.3794 187.155 65.3826 186.8 66.2576 186.212C66.7055 185.909 67.1012 186.662 66.6563 186.963C65.6865 187.608 64.5781 187.999 63.4277 188.101C62.2774 188.204 61.1202 188.015 60.0572 187.551C59.9534 187.516 59.8665 187.441 59.8142 187.343C59.7618 187.244 59.7479 187.129 59.7753 187.02C59.8069 186.911 59.8788 186.82 59.9754 186.766C60.072 186.711 60.1856 186.698 60.2914 186.73Z" fill="white"/>
<path d="M193.637 66.9279C208.187 66.9279 219.982 54.7913 219.982 39.8201C219.982 24.8489 208.187 12.7123 193.637 12.7123C179.087 12.7123 167.292 24.8489 167.292 39.8201C167.292 54.7913 179.087 66.9279 193.637 66.9279Z" fill="#FF6584"/>
<path d="M274.301 38.4056C271.927 35.8252 269.421 33.3773 266.793 31.0725C261.66 26.5942 255.978 22.7862 249.645 20.3875C247.26 19.4814 244.796 18.814 242.287 18.3946C241.986 18.3444 241.689 18.2942 241.388 18.2532C241.366 18.2509 241.343 18.2509 241.321 18.2532C241.275 18.2397 241.227 18.2305 241.179 18.2258C240.563 18.1437 239.947 18.0799 239.327 18.0343C235.985 17.8057 232.629 18.1166 229.381 18.9555C227.496 19.4448 225.657 20.104 223.885 20.9256C222.11 21.8199 220.389 22.8235 218.731 23.9309C217.84 24.4874 216.923 24.9972 215.983 25.4586C213.237 26.7971 210.331 27.7541 207.34 28.3043C205.32 28.6771 203.275 28.8845 201.224 28.9245C199.442 28.961 197.762 29.0248 196.074 29.6861C194.271 30.3828 192.653 31.5037 191.347 32.9591C190.041 34.4146 189.084 36.1642 188.552 38.0681C188.51 38.2372 188.522 38.4156 188.586 38.5773C188.65 38.7389 188.762 38.8753 188.907 38.9665C189.363 39.304 189.807 39.687 190.29 39.988C190.716 40.1882 191.171 40.316 191.637 40.3665C192.399 40.5307 193.163 40.6903 193.929 40.8454C196.743 41.42 199.569 41.9292 202.407 42.3731C208.116 43.2624 213.857 43.8887 219.63 44.252C219.666 44.2573 219.701 44.2603 219.737 44.2611C226.259 44.6662 232.798 44.7316 239.327 44.4572C240.315 44.4162 241.299 44.366 242.287 44.3067C246.405 44.0696 250.512 43.6956 254.609 43.1848C258.398 42.7106 262.173 42.1223 265.933 41.42C268.619 40.9183 271.294 40.3589 273.959 39.7418C274.089 39.7024 274.206 39.6293 274.3 39.5296C274.394 39.4299 274.462 39.3069 274.496 39.1726C274.53 39.0383 274.53 38.8971 274.496 38.7627C274.462 38.6284 274.395 38.5054 274.301 38.4056Z" fill="#E6E6E6"/>
<path d="M219.542 74.5512C215.728 70.3531 211.525 66.547 206.994 63.1868C205.492 62.1014 203.945 61.0798 202.354 60.1449C200.403 58.9863 198.377 57.9669 196.291 57.094C195.825 56.898 195.356 56.711 194.886 56.5331C192.217 55.5159 189.448 54.8003 186.629 54.3989C186.607 54.3943 186.585 54.3989 186.562 54.3943C186.518 54.3852 186.469 54.3761 186.425 54.3669C185.058 54.1846 183.681 54.0977 182.303 54.107C181.315 54.107 180.322 54.1617 179.338 54.2621C177.748 54.4232 176.172 54.7036 174.622 55.1012C173.855 55.2973 173.093 55.5253 172.344 55.7852C171.252 56.1552 170.179 56.5844 169.131 57.0713C169.113 57.0804 169.1 57.0849 169.082 57.094C167.322 57.9798 165.617 58.9758 163.976 60.0766C163.941 60.0994 163.901 60.1222 163.865 60.1449C162.001 61.2923 160.029 62.2426 157.98 62.9815C156.22 63.6147 154.415 64.1057 152.581 64.45C150.562 64.8238 148.516 65.0296 146.465 65.0656C144.683 65.1021 143.003 65.1659 141.319 65.8318C139.517 66.5284 137.897 67.6491 136.59 69.1045C135.284 70.5599 134.326 72.3096 133.793 74.2138C133.752 74.3829 133.765 74.561 133.828 74.7225C133.892 74.8839 134.004 75.0204 134.148 75.1122C134.605 75.4496 135.052 75.8281 135.531 76.1291C135.957 76.3309 136.412 76.4587 136.878 76.5076C137.641 76.6718 138.403 76.836 139.17 76.991C141.984 77.5657 144.812 78.0734 147.653 78.5142C151.549 79.1208 155.461 79.6057 159.389 79.969C161.251 80.1468 163.113 80.2928 164.978 80.4068C169.76 80.7032 174.547 80.8187 179.338 80.7534C180.326 80.7397 181.315 80.7169 182.303 80.685C188.171 80.5071 194.022 80.0541 199.854 79.326C206.356 78.5166 212.813 77.3675 219.201 75.8829C219.33 75.8439 219.447 75.7713 219.541 75.672C219.635 75.5727 219.702 75.4501 219.737 75.3162C219.771 75.1822 219.771 75.0414 219.737 74.9074C219.703 74.7734 219.636 74.6507 219.542 74.5512Z" fill="#E6E6E6"/>
<path d="M153.874 1.79973L177.083 331.817L130.664 336.056V5.99848C136.195 1.5528 144.135 0.857262 153.874 1.79973Z" fill="#CCCCCC"/>
<path d="M268.441 1.79973L245.231 331.817L291.65 336.056V5.99848C286.119 1.5528 278.179 0.857262 268.441 1.79973Z" fill="#CCCCCC"/>
<path d="M292.743 6.14253C291.302 2.50869 288.24 0 284.698 0H137.122C132.198 0 128.195 4.86126 128.195 10.8423V338.852C128.152 341.887 129.255 344.82 131.271 347.035C132.326 348.175 133.662 348.999 135.136 349.42C135.783 349.604 136.451 349.696 137.122 349.694H284.698C285.369 349.696 286.037 349.604 286.684 349.42C290.655 348.322 293.625 344.004 293.625 338.852V10.8423C293.629 9.23177 293.329 7.6357 292.743 6.14253ZM290.664 338.852C290.664 342.847 287.987 346.098 284.698 346.098H137.122C134.396 346.098 132.087 343.864 131.382 340.822C131.231 340.177 131.156 339.516 131.156 338.852V10.8423C131.156 6.84778 133.833 3.60156 137.122 3.60156H284.698C285.304 3.60107 285.904 3.71229 286.471 3.92995C288.895 4.84514 290.664 7.59609 290.664 10.8423V338.852Z" fill="#CCCCCC"/>
<path d="M292.144 99.7036H129.676V102.752H292.144V99.7036Z" fill="#CCCCCC"/>
<path d="M292.144 36.7701H129.676V39.8188H292.144V36.7701Z" fill="#CCCCCC"/>
<path d="M292.144 150.515H129.676V153.564H292.144V150.515Z" fill="#CCCCCC"/>
<path d="M182.399 1.36816H179.436V193.705H182.399V1.36816Z" fill="#CCCCCC"/>
<path d="M242.385 1.36816H239.422V193.705H242.385V1.36816Z" fill="#CCCCCC"/>
<path d="M310.662 330.641H116.096C112.561 330.645 109.173 332.092 106.673 334.664C104.174 337.235 102.768 340.722 102.764 344.359C102.762 346.108 103.089 347.84 103.726 349.462C104.715 352.005 106.423 354.185 108.627 355.721C110.832 357.258 113.433 358.079 116.096 358.081H310.662C312.989 358.08 315.276 357.452 317.294 356.26C319.313 355.068 320.993 353.353 322.167 351.286C322.502 350.702 322.792 350.092 323.036 349.462C323.673 347.84 324 346.108 323.998 344.359C323.993 340.721 322.586 337.235 320.086 334.663C317.586 332.092 314.197 330.645 310.662 330.641Z" fill="#CCCCCC"/>
<path d="M292.144 186.591H130.664V196.753H292.144V186.591Z" fill="#CCCCCC"/>
<path d="M209.923 183.542H212.886C214.326 183.542 215.708 184.131 216.727 185.179C217.745 186.228 218.318 187.649 218.318 189.132H204.491C204.491 188.398 204.631 187.671 204.904 186.993C205.177 186.315 205.577 185.698 206.082 185.179C206.586 184.66 207.185 184.249 207.844 183.968C208.503 183.687 209.209 183.542 209.923 183.542Z" fill="#CCCCCC"/>
<path d="M214.253 215.251C231.154 215.251 244.856 201.153 244.856 183.763C244.856 166.372 231.154 152.274 214.253 152.274C197.351 152.274 183.65 166.372 183.65 183.763C183.65 201.153 197.351 215.251 214.253 215.251Z" fill="#FFB8B8"/>
<path d="M180.114 153.471C180.346 149.855 182.67 146.154 190.054 144.221C190.054 144.221 202.726 127.548 219.946 136.291C219.946 136.291 228.294 134.813 234.484 143.725C234.484 143.725 240.621 140.001 243.211 146.603C243.211 146.603 250.409 160.068 247.759 173.803C245.109 187.538 243.752 189.253 243.752 189.253C243.752 189.253 247.13 160.842 227.675 162.812C208.219 164.782 192.556 157.742 188.15 173.156C184.491 185.954 184.952 192.601 184.952 192.601C184.952 192.601 172.718 179.834 176.878 169.78C179.005 164.638 179.758 159.047 180.114 153.471Z" fill="#2F2E41"/>
<path d="M131.032 355.846H300.304C299.173 342.561 298.434 291.775 298.434 288.432C298.434 273.69 286.71 257.601 286.71 257.601L282.513 255.215L247.468 243.964L238.398 231.843C237.449 230.57 236.225 229.541 234.824 228.837C233.422 228.132 231.881 227.772 230.321 227.785L201.672 228.006C199.151 228.026 196.728 229.014 194.878 230.776L177.137 247.71L151.117 260.495L151.073 260.45L150.801 260.658L146.939 263.519L144.456 265.366C144.456 265.366 137.94 273.41 132.732 297.537C131.948 301.165 131.398 348.14 131.032 355.846Z" fill="#6C63FF"/>
<path d="M339.484 349.462C339.076 349.845 338.664 350.223 338.252 350.602C336.691 352.029 335.109 353.432 333.505 354.811C331.08 356.891 328.606 358.908 326.081 360.863H98.2076C93.5671 357.278 89.0981 353.478 84.8004 349.462H339.484Z" fill="#CCCCCC"/>
<path d="M255.956 352.198H172.189L173.961 343.533H254.183L255.956 352.198Z" fill="#2F2E41"/>
<path d="M331.741 314.803H309.944C309.452 314.801 308.965 314.911 308.519 315.123C308.072 315.336 307.677 315.647 307.36 316.034C307.056 315.974 306.747 315.943 306.438 315.943C305.758 315.942 305.086 316.079 304.458 316.346C303.83 316.613 303.259 317.005 302.779 317.499C302.298 317.993 301.917 318.58 301.657 319.226C301.397 319.871 301.263 320.564 301.263 321.263C301.263 321.962 301.397 322.654 301.657 323.3C301.917 323.945 302.298 324.532 302.779 325.026C303.259 325.52 303.83 325.912 304.458 326.179C305.086 326.446 305.758 326.583 306.438 326.582C307.218 326.582 307.989 326.398 308.689 326.044L309.053 330.641L310.498 348.81C310.566 349.037 310.658 349.255 310.772 349.462C311.064 350.014 311.496 350.474 312.021 350.795C312.545 351.116 313.145 351.286 313.755 351.286H327.929C328.54 351.285 329.14 351.115 329.665 350.795C330.191 350.474 330.623 350.013 330.916 349.462C331.027 349.254 331.118 349.036 331.187 348.81L334.998 319.34C335.155 318.816 335.19 318.261 335.1 317.72C335.011 317.179 334.799 316.667 334.482 316.226C334.165 315.785 333.752 315.426 333.276 315.179C332.8 314.932 332.274 314.803 331.741 314.803ZM306.438 325.064C305.459 325.062 304.52 324.661 303.828 323.949C303.137 323.236 302.748 322.27 302.748 321.263C302.748 320.255 303.137 319.289 303.828 318.576C304.52 317.864 305.459 317.463 306.438 317.461C306.504 317.461 306.566 317.48 306.633 317.484C306.487 318.097 306.505 318.738 306.686 319.34L308.246 324.557C307.697 324.886 307.073 325.061 306.438 325.064Z" fill="#3F3D56"/>
<path d="M282.509 218.382H144.528C143.342 218.384 142.206 218.87 141.368 219.732C140.529 220.595 140.058 221.764 140.056 222.984V318.789C140.057 320.009 140.528 321.178 141.367 322.041C142.205 322.904 143.342 323.389 144.528 323.39H282.509C283.694 323.389 284.831 322.904 285.67 322.041C286.508 321.178 286.98 320.009 286.981 318.789V222.984C286.979 221.764 286.507 220.595 285.669 219.732C284.831 218.87 283.694 218.384 282.509 218.382Z" fill="#3F3D56"/>
<path d="M229.057 295.147H196.778C196.321 295.148 195.884 295.335 195.561 295.668C195.239 296.001 195.058 296.452 195.058 296.921V349.389H230.781V296.921C230.782 296.688 230.737 296.458 230.65 296.242C230.564 296.027 230.437 295.832 230.277 295.667C230.117 295.502 229.926 295.371 229.717 295.282C229.508 295.193 229.284 295.147 229.057 295.147ZM213.026 324.959C212.017 324.954 211.05 324.539 210.336 323.805C209.622 323.07 209.219 322.075 209.215 321.037V314.985C209.216 313.946 209.618 312.949 210.333 312.215C211.047 311.48 212.016 311.068 213.026 311.068C214.036 311.068 215.005 311.48 215.72 312.215C216.435 312.949 216.837 313.946 216.838 314.985V321.037C216.833 322.075 216.43 323.07 215.716 323.805C215.003 324.539 214.036 324.954 213.026 324.959Z" fill="#2F2E41"/>
<path d="M194.948 347.711V352.773C194.948 353.035 195.05 353.286 195.23 353.472C195.41 353.657 195.654 353.762 195.909 353.762H229.93C230.185 353.761 230.429 353.656 230.609 353.471C230.789 353.286 230.891 353.035 230.892 352.773V347.711H194.948Z" fill="#3F3D56"/>
<path d="M279.575 317.787C280.778 317.787 281.753 316.783 281.753 315.546C281.753 314.308 280.778 313.304 279.575 313.304C278.372 313.304 277.396 314.308 277.396 315.546C277.396 316.783 278.372 317.787 279.575 317.787Z" fill="#2F2E41"/>
<path d="M161.946 312.295C161.846 312.295 161.747 312.315 161.654 312.354C161.562 312.394 161.478 312.451 161.407 312.524C161.336 312.597 161.28 312.684 161.242 312.779C161.203 312.874 161.184 312.976 161.184 313.079V317.115C161.184 317.323 161.265 317.522 161.408 317.668C161.551 317.815 161.744 317.897 161.946 317.897C162.148 317.897 162.341 317.815 162.484 317.668C162.627 317.522 162.708 317.323 162.708 317.115V313.079C162.708 312.976 162.689 312.874 162.65 312.779C162.612 312.684 162.556 312.597 162.485 312.524C162.414 312.451 162.33 312.394 162.238 312.354C162.145 312.315 162.046 312.295 161.946 312.295Z" fill="#2F2E41"/>
<path d="M166.086 312.295C165.986 312.295 165.886 312.315 165.794 312.354C165.701 312.394 165.617 312.451 165.547 312.524C165.476 312.597 165.42 312.684 165.381 312.779C165.343 312.874 165.323 312.976 165.323 313.079V317.115C165.323 317.323 165.404 317.522 165.547 317.67C165.69 317.817 165.883 317.899 166.086 317.899C166.288 317.899 166.482 317.817 166.625 317.67C166.768 317.522 166.848 317.323 166.848 317.115V313.079C166.848 312.976 166.828 312.874 166.79 312.779C166.752 312.684 166.695 312.597 166.625 312.524C166.554 312.451 166.47 312.394 166.377 312.354C166.285 312.315 166.186 312.295 166.086 312.295Z" fill="#2F2E41"/>
<path d="M170.225 312.295C170.125 312.295 170.026 312.315 169.933 312.354C169.841 312.394 169.757 312.451 169.686 312.524C169.615 312.597 169.559 312.684 169.521 312.779C169.483 312.874 169.463 312.976 169.463 313.079V317.115C169.463 317.323 169.544 317.522 169.687 317.668C169.83 317.815 170.023 317.897 170.225 317.897C170.427 317.897 170.621 317.815 170.764 317.668C170.906 317.522 170.987 317.323 170.988 317.115V313.079C170.988 312.976 170.968 312.874 170.93 312.779C170.891 312.684 170.835 312.597 170.764 312.524C170.694 312.451 170.609 312.394 170.517 312.354C170.424 312.315 170.325 312.295 170.225 312.295Z" fill="#2F2E41"/>
<path d="M174.365 312.295C174.265 312.295 174.166 312.315 174.073 312.354C173.981 312.394 173.897 312.451 173.826 312.524C173.755 312.597 173.699 312.684 173.661 312.779C173.622 312.874 173.603 312.976 173.603 313.079V317.115C173.603 317.323 173.684 317.522 173.827 317.668C173.969 317.815 174.163 317.897 174.365 317.897C174.567 317.897 174.76 317.815 174.903 317.668C175.046 317.522 175.127 317.323 175.127 317.115V313.079C175.127 312.976 175.107 312.874 175.069 312.779C175.031 312.684 174.975 312.597 174.904 312.524C174.833 312.451 174.749 312.394 174.657 312.354C174.564 312.315 174.465 312.295 174.365 312.295Z" fill="#2F2E41"/>
<path d="M177.668 349.918C184.032 349.918 189.191 344.609 189.191 338.061C189.191 331.512 184.032 326.204 177.668 326.204C171.303 326.204 166.144 331.512 166.144 338.061C166.144 344.609 171.303 349.918 177.668 349.918Z" fill="#FFB8B8"/>
<path d="M258.172 352.198C264.536 352.198 269.695 346.889 269.695 340.341C269.695 333.792 264.536 328.484 258.172 328.484C251.808 328.484 246.648 333.792 246.648 340.341C246.648 346.889 251.808 352.198 258.172 352.198Z" fill="#FFB8B8"/>
<path d="M377.116 197.223C375.977 195.285 374.627 193.216 372.514 192.583C370.067 191.851 367.553 193.306 365.421 194.743C359.044 199.039 352.903 203.695 347.025 208.689L347.032 208.764C351.607 208.439 355.405 220.958 359.981 220.633C363.286 220.399 367.484 207.288 370.406 205.679C371.514 205.068 372.595 204.253 373.851 204.196C375.412 204.125 376.773 205.247 377.842 206.419C384.168 213.35 385.999 223.95 393.097 230.04C388.621 218.684 383.277 207.71 377.116 197.223Z" fill="#3F3D56"/>
<path d="M389.292 214.059C392.629 220.261 396.169 226.34 399.911 232.296V232.301C399.889 232.511 399.858 232.72 399.827 232.93C399.375 232.219 398.927 231.504 398.484 230.787C395.125 225.364 391.932 219.839 388.906 214.21C387.47 211.533 386.07 208.834 384.705 206.115C383.65 204.008 382.617 201.889 381.607 199.758C381.319 199.147 381.039 198.536 380.76 197.92C380.104 196.479 379.457 195.029 378.766 193.606C377.977 191.982 377.015 190.286 375.566 189.196C374.906 188.679 374.118 188.366 373.292 188.293C372.129 188.3 370.989 188.636 369.999 189.264C362.501 193.319 355.503 198.285 349.155 204.054C342.798 209.8 337.116 216.291 332.224 223.394C332.073 223.613 331.719 223.403 331.869 223.18C332.468 222.313 333.07 221.461 333.691 220.612C341.381 210.09 350.81 201.041 361.547 193.879C363.351 192.675 365.19 191.528 367.065 190.436C368.009 189.885 368.957 189.342 369.924 188.831C370.848 188.273 371.886 187.942 372.955 187.864C376.634 187.805 378.54 192.092 379.847 194.974C380.255 195.881 380.67 196.787 381.092 197.692C382.684 201.112 384.337 204.505 386.052 207.871C387.107 209.946 388.187 212.009 389.292 214.059Z" fill="#3F3D56"/>
<path d="M348.793 201.936C348.579 201.691 348.367 201.446 348.152 201.201C346.456 199.271 344.636 197.364 342.307 196.257C341.197 195.713 339.984 195.424 338.754 195.41C337.485 195.446 336.234 195.727 335.066 196.238C334.51 196.466 333.967 196.725 333.432 197.001C332.821 197.317 332.221 197.655 331.623 197.995C330.502 198.634 329.395 199.301 328.302 199.995C326.129 201.378 324.023 202.865 321.985 204.459C320.929 205.285 319.894 206.138 318.882 207.019C317.94 207.837 317.017 208.677 316.113 209.538C315.92 209.722 315.631 209.425 315.825 209.242C316.063 209.013 316.304 208.786 316.545 208.562C317.225 207.929 317.917 207.308 318.619 206.7C319.9 205.588 321.214 204.519 322.561 203.492C324.656 201.896 326.823 200.407 329.062 199.027C330.181 198.338 331.315 197.678 332.465 197.047C332.812 196.857 333.163 196.67 333.518 196.494C334.324 196.076 335.162 195.725 336.023 195.445C337.242 195.039 338.532 194.909 339.805 195.063C341.034 195.247 342.218 195.668 343.295 196.305C345.582 197.62 347.356 199.654 349.081 201.638C349.256 201.84 348.968 202.138 348.793 201.936Z" fill="#3F3D56"/>
<path d="M332.059 211.222C331.478 211.252 330.904 211.082 330.426 210.741C329.16 209.754 329.194 207.385 330.527 203.497C330.89 202.443 331.459 201.478 332.199 200.66C332.939 199.841 333.834 199.188 334.829 198.739C335.761 198.311 336.77 198.086 337.791 198.08C338.812 198.073 339.823 198.286 340.76 198.703C340.924 198.776 341.085 198.855 341.244 198.939C342.329 199.564 343.345 200.306 344.277 201.153C345.069 201.86 345.913 202.502 346.803 203.072L347.1 203.251L346.818 203.455C339.639 208.656 334.771 211.222 332.059 211.222Z" fill="#3F3D56"/>
<path d="M359.668 180.271C357.307 180.271 355.019 179.428 353.195 177.885C351.371 176.343 350.124 174.197 349.667 171.814C347.693 172.225 345.881 173.229 344.461 174.698C343.041 176.168 342.076 178.037 341.687 180.071C341.298 182.104 341.504 184.21 342.278 186.124C343.051 188.037 344.358 189.672 346.034 190.821C347.71 191.971 349.679 192.584 351.693 192.583C353.707 192.583 355.676 191.968 357.351 190.817C359.026 189.667 360.332 188.031 361.104 186.117C361.877 184.203 362.081 182.097 361.691 180.064C361.025 180.202 360.347 180.271 359.668 180.271Z" fill="#3F3D56"/>
<path opacity="0.74" d="M86.7916 197.145C95.193 197.145 102.004 190.137 102.004 181.492C102.004 172.848 95.193 165.84 86.7916 165.84C78.3901 165.84 71.5793 172.848 71.5793 181.492C71.5793 190.137 78.3901 197.145 86.7916 197.145Z" fill="#3F3D56"/>
<path opacity="0.74" d="M102.004 197.145C110.405 197.145 117.216 190.137 117.216 181.492C117.216 172.848 110.405 165.84 102.004 165.84C93.6023 165.84 86.7916 172.848 86.7916 181.492C86.7916 190.137 93.6023 197.145 102.004 197.145Z" fill="#6C63FF"/>
<path opacity="0.74" d="M94.5264 184.67C102.928 184.67 109.739 177.662 109.739 169.017C109.739 160.373 102.928 153.365 94.5264 153.365C86.1249 153.365 79.3141 160.373 79.3141 169.017C79.3141 177.662 86.1249 184.67 94.5264 184.67Z" fill="#FF6584"/>
<path d="M134.304 164.532L95.2303 177.163L95.496 178.033L134.57 165.402L134.304 164.532Z" fill="#3F3D56"/>
<path d="M134.553 166.645C135.532 166.645 136.326 165.829 136.326 164.821C136.326 163.814 135.532 162.997 134.553 162.997C133.574 162.997 132.78 163.814 132.78 164.821C132.78 165.829 133.574 166.645 134.553 166.645Z" fill="#3F3D56"/>
<path d="M388.219 246.903C390.817 248.787 393.312 250.706 396.166 252.157C396.113 252.38 396.055 252.608 396.002 252.832C395.652 252.663 395.311 252.485 394.97 252.303C392.075 250.743 389.584 248.622 386.868 246.78C385.521 245.822 384.05 245.064 382.498 244.527C380.88 244.027 379.189 243.823 377.502 243.925C370.469 244.281 364.441 248.6 357.904 250.775C354.704 251.842 351.3 252.412 347.962 251.742C344.625 251.071 341.66 249.247 338.712 247.596C335.805 245.964 332.636 244.322 329.241 244.322C326.475 244.327 323.568 245.467 322.088 247.984C322.042 248.059 321.969 248.113 321.885 248.134C321.801 248.155 321.713 248.141 321.638 248.096C321.564 248.051 321.509 247.978 321.487 247.892C321.464 247.807 321.474 247.715 321.516 247.637C321.847 247.064 322.254 246.54 322.726 246.082C324.658 244.199 327.499 243.455 330.11 243.674C333.487 243.957 336.567 245.599 339.488 247.25C342.586 249.001 345.76 250.884 349.341 251.267C352.878 251.65 356.379 250.697 359.659 249.416C366.01 246.931 372.277 242.79 379.342 243.25C382.675 243.469 385.529 244.956 388.219 246.903Z" fill="#3F3D56"/>
<path d="M110.219 115.012V115.938C109.921 115.877 109.618 115.847 109.314 115.846H104.678V126.089C104.678 127.606 104.092 129.06 103.05 130.132C102.008 131.204 100.594 131.807 99.1206 131.808H92.2685V133.386C92.2685 134.018 92.3905 134.645 92.6275 135.228H91.679C91.4808 134.635 91.3804 134.013 91.3821 133.386V131.808H87.6147V130.896H91.3821V120.653C91.3829 119.137 91.9687 117.683 93.0109 116.61C94.053 115.538 95.4662 114.935 96.9399 114.934H103.792V113.338H104.678V114.934H109.314C109.617 114.935 109.92 114.961 110.219 115.012Z" fill="#6C63FF"/>
<path d="M99.1206 107.638H86.7461C85.2723 107.639 83.8591 108.241 82.817 109.314C81.7749 110.386 81.189 111.84 81.1882 113.357V126.089C81.189 127.606 81.7749 129.06 82.817 130.132C83.8591 131.204 85.2723 131.807 86.7461 131.808H99.1206C100.594 131.807 102.008 131.204 103.05 130.132C104.092 129.06 104.678 127.606 104.678 126.089V113.338C104.673 111.825 104.085 110.375 103.044 109.307C102.002 108.239 100.591 107.638 99.1206 107.638ZM103.792 126.089C103.79 127.363 103.298 128.585 102.422 129.486C101.546 130.387 100.359 130.894 99.1206 130.896H86.7461C85.5076 130.894 84.3204 130.387 83.4447 129.486C82.569 128.585 82.0763 127.363 82.0746 126.089V113.357C82.0763 112.082 82.569 110.861 83.4447 109.96C84.3204 109.059 85.5076 108.552 86.7461 108.55H99.1206C100.356 108.551 101.541 109.056 102.416 109.953C103.291 110.85 103.786 112.067 103.792 113.338V126.089Z" fill="#3F3D56"/>
<path d="M91.3821 130.896V131.808H92.2685V130.896H91.3821ZM91.3821 130.896V131.808H92.2685V130.896H91.3821ZM110.219 115.012C109.92 114.961 109.617 114.935 109.315 114.934H96.94C95.4662 114.935 94.053 115.538 93.0109 116.61C91.9688 117.683 91.383 119.137 91.3821 120.653V133.386C91.3805 134.013 91.4808 134.635 91.6791 135.228C92.0532 136.358 92.7616 137.34 93.705 138.035C94.6484 138.73 95.7796 139.104 96.94 139.105H109.315C110.788 139.104 112.201 138.501 113.244 137.429C114.286 136.356 114.872 134.902 114.872 133.386V120.653C114.872 119.298 114.404 117.987 113.552 116.954C112.699 115.921 111.518 115.232 110.219 115.012ZM113.986 133.386C113.984 134.66 113.492 135.882 112.616 136.783C111.74 137.684 110.553 138.191 109.315 138.192H96.94C95.7016 138.191 94.5144 137.684 93.6387 136.783C92.763 135.882 92.2703 134.66 92.2685 133.386V120.653C92.2702 119.379 92.7629 118.157 93.6386 117.256C94.5143 116.355 95.7015 115.848 96.94 115.847H109.315C110.553 115.847 111.741 116.354 112.617 117.255C113.493 118.156 113.985 119.379 113.986 120.653V133.386ZM91.3821 130.896V131.808H92.2685V130.896H91.3821Z" fill="#3F3D56"/>
<path d="M82.6286 249.781H30.0636C29.6977 249.781 29.3468 249.93 29.0876 250.196C28.8285 250.462 28.6822 250.822 28.6808 251.199V254.405C30.415 261.239 32.5146 267.97 34.97 274.566H82.6287C82.8097 274.567 82.989 274.53 83.1564 274.459C83.3237 274.388 83.4757 274.283 83.6037 274.151C83.7318 274.02 83.8333 273.863 83.9025 273.691C83.9717 273.519 84.0072 273.334 84.007 273.148V251.199C84.0066 250.823 83.8613 250.462 83.6029 250.196C83.3445 249.931 82.9941 249.781 82.6286 249.781Z" fill="#6C63FF"/>
<path d="M77.6203 281.685H37.7755C38.2498 282.83 38.7329 283.965 39.2337 285.096H77.6203C79.7832 285.128 79.7611 281.653 77.6203 281.685Z" fill="#E4E4E4"/>
<path d="M77.6204 289.502H41.2326C41.7644 290.646 42.3111 291.783 42.8725 292.913H77.6204C79.7832 292.945 79.7611 289.474 77.6204 289.502Z" fill="#E4E4E4"/>
<path d="M77.6204 297.323H45.1107C45.7046 298.467 46.3162 299.603 46.9367 300.734H77.6204C79.7832 300.766 79.7611 297.291 77.6204 297.323Z" fill="#E4E4E4"/>
<path d="M350.13 87.1045H349.878C350.664 87.1052 351.439 87.2939 352.142 87.6556H350.993C349.755 87.657 348.567 88.1639 347.691 89.0649C346.816 89.966 346.323 91.1877 346.322 92.462V105.195C346.323 106.469 346.816 107.691 347.691 108.592C348.567 109.493 349.755 110 350.993 110.001H351.726C351.137 110.239 350.51 110.362 349.878 110.362H350.13C351.486 110.361 352.786 109.806 353.745 108.819C354.704 107.833 355.243 106.495 355.245 105.1V92.367C355.243 90.9718 354.704 89.6342 353.745 88.6476C352.786 87.6611 351.486 87.1061 350.13 87.1045Z" fill="#3F3D56"/>
<path opacity="0.21" d="M350.13 87.1045H349.878C350.664 87.1052 351.439 87.2939 352.142 87.6556H350.993C349.755 87.657 348.567 88.1639 347.691 89.0649C346.816 89.966 346.323 91.1877 346.322 92.462V105.195C346.323 106.469 346.816 107.691 347.691 108.592C348.567 109.493 349.755 110 350.993 110.001H351.726C351.137 110.239 350.51 110.362 349.878 110.362H350.13C351.486 110.361 352.786 109.806 353.745 108.819C354.704 107.833 355.243 106.495 355.245 105.1V92.367C355.243 90.9718 354.704 89.6342 353.745 88.6476C352.786 87.6611 351.486 87.1061 350.13 87.1045Z" fill="black"/>
<path d="M317.333 87.1045H317.08C317.866 87.1052 318.641 87.2939 319.345 87.6556H318.195C316.957 87.657 315.77 88.1639 314.894 89.0649C314.018 89.966 313.525 91.1877 313.524 92.462V105.195C313.525 106.469 314.018 107.691 314.894 108.592C315.77 109.493 316.957 110 318.195 110.001H318.928C318.339 110.239 317.713 110.362 317.08 110.362H317.333C318.689 110.361 319.989 109.806 320.947 108.819C321.906 107.833 322.446 106.495 322.447 105.1V92.367C322.446 90.9718 321.906 89.6342 320.947 88.6476C319.989 87.6611 318.689 87.1061 317.333 87.1045Z" fill="#6C63FF"/>
<path opacity="0.21" d="M317.333 87.1045H317.08C317.866 87.1052 318.641 87.2939 319.345 87.6556H318.195C316.957 87.657 315.77 88.1639 314.894 89.0649C314.018 89.966 313.525 91.1877 313.524 92.462V105.195C313.525 106.469 314.018 107.691 314.894 108.592C315.77 109.493 316.957 110 318.195 110.001H318.928C318.339 110.239 317.713 110.362 317.08 110.362H317.333C318.689 110.361 319.989 109.806 320.947 108.819C321.906 107.833 322.446 106.495 322.447 105.1V92.367C322.446 90.9718 321.906 89.6342 320.947 88.6476C319.989 87.6611 318.689 87.1061 317.333 87.1045Z" fill="black"/>
<path d="M318.245 110.041C317.006 110.04 315.819 109.533 314.943 108.632C314.068 107.731 313.575 106.509 313.574 105.235V92.5017C313.575 91.2274 314.068 90.0057 314.943 89.1046C315.819 88.2035 317.006 87.6967 318.245 87.6952H319.394C318.691 87.3335 317.916 87.1449 317.13 87.1442H304.755C303.399 87.1458 302.099 87.7007 301.14 88.6873C300.181 89.6738 299.642 91.0114 299.64 92.4066V105.14C299.642 106.535 300.181 107.872 301.14 108.859C302.099 109.846 303.399 110.401 304.755 110.402H317.13C317.762 110.401 318.389 110.279 318.978 110.041L318.245 110.041Z" fill="#6C63FF"/>
<path d="M351.042 110.041C349.804 110.04 348.617 109.533 347.741 108.632C346.865 107.731 346.373 106.509 346.371 105.235V92.5017C346.373 91.2274 346.865 90.0057 347.741 89.1046C348.617 88.2035 349.804 87.6967 351.042 87.6952H352.192C351.489 87.3335 350.713 87.1449 349.927 87.1442H337.552C336.196 87.1458 334.897 87.7007 333.938 88.6873C332.979 89.6738 332.44 91.0114 332.438 92.4066V105.14C332.44 106.535 332.979 107.872 333.938 108.859C334.897 109.846 336.196 110.401 337.552 110.402H349.927C350.56 110.401 351.186 110.279 351.775 110.041L351.042 110.041Z" fill="#3F3D56"/>
<path d="M365.655 90.3129C370.197 96.7416 374.352 103.45 378.096 110.401H370.349C368.993 110.399 367.693 109.844 366.735 108.858C365.776 107.871 365.236 106.534 365.234 105.139V92.4061C365.234 91.686 365.377 90.9736 365.655 90.3129Z" fill="#FF6584"/>
<path d="M350.121 117.082L345.786 110.401L342.617 105.517C342.432 105.232 342.173 105.006 341.868 104.867C341.564 104.727 341.227 104.679 340.897 104.728C340.568 104.778 340.258 104.922 340.005 105.145C339.751 105.367 339.565 105.659 339.466 105.987L338.132 110.401L335.446 119.271C335.34 119.625 335.341 120.003 335.449 120.356C335.558 120.708 335.768 121.019 336.052 121.245C336.336 121.472 336.681 121.604 337.04 121.623C337.399 121.643 337.755 121.55 338.061 121.356L339.014 120.749C339.206 120.627 339.425 120.558 339.65 120.548C339.875 120.537 340.099 120.586 340.3 120.69C340.502 120.794 340.674 120.949 340.801 121.14C340.928 121.332 341.006 121.553 341.026 121.784L341.899 131.589C341.94 132.039 342.143 132.458 342.467 132.763C342.792 133.068 343.215 133.238 343.654 133.24C343.708 133.24 343.761 133.235 343.818 133.231L345.157 133.108C345.388 133.086 345.612 133.018 345.817 132.907C346.023 132.796 346.205 132.644 346.353 132.461C346.501 132.278 346.613 132.066 346.681 131.838C346.75 131.61 346.774 131.371 346.752 131.133L345.853 121.009C345.831 120.771 345.871 120.532 345.969 120.315C346.066 120.098 346.217 119.911 346.406 119.773C346.596 119.636 346.817 119.552 347.049 119.53C347.28 119.508 347.512 119.55 347.723 119.65L347.918 119.741C348.267 119.907 348.659 119.95 349.035 119.865C349.41 119.78 349.749 119.571 349.998 119.27C350.247 118.969 350.394 118.592 350.417 118.197C350.439 117.803 350.335 117.411 350.121 117.082Z" fill="#CCCCCC"/>
</g>
<defs>
<clipPath id="clip0_29_118">
<rect width="400" height="400" fill="white"/>
</clipPath>
</defs>
</svg>
